<svg width="38" height="36" viewBox="0 0 38 36" fill="none" xmlns="http://www.w3.org/2000/svg">
<path d="M18.6605 7.06055C18.4955 7.06055 18.3373 6.99082 18.2207 6.86668C18.104 6.74254 18.0385 6.57418 18.0385 6.39863V5.95737C18.0379 5.43088 17.8412 4.92614 17.4913 4.55386C17.1415 4.18158 16.6672 3.97217 16.1724 3.97158C16.0075 3.97158 15.8493 3.90184 15.7326 3.7777C15.616 3.65357 15.5504 3.4852 15.5504 3.30965C15.5504 3.1341 15.616 2.96573 15.7326 2.8416C15.8493 2.71746 16.0075 2.64772 16.1724 2.64772C16.997 2.64871 17.7875 2.99772 18.3706 3.61818C18.9536 4.23865 19.2816 5.0799 19.2825 5.95737V6.39863C19.2825 6.57418 19.217 6.74254 19.1003 6.86668C18.9837 6.99082 18.8255 7.06055 18.6605 7.06055Z" fill="#353744"/>
<path d="M28.9238 15.8863H16.4834C17.2258 15.8863 17.9378 16.2001 18.4627 16.7587C18.9876 17.3174 19.2825 18.075 19.2825 18.865C19.2825 19.655 18.9876 20.4126 18.4627 20.9712C17.9378 21.5298 17.2258 21.8437 16.4834 21.8437H28.9238C29.6661 21.8437 30.3781 21.5298 30.903 20.9712C31.428 20.4126 31.7229 19.655 31.7229 18.865C31.7229 18.075 31.428 17.3174 30.903 16.7587C30.3781 16.2001 29.6661 15.8863 28.9238 15.8863V15.8863Z" fill="#4B55A5"/>
<path d="M4.97614 16.5482H16.4835C17.0608 16.5482 17.6146 16.7923 18.0229 17.2268C18.4311 17.6613 18.6605 18.2505 18.6605 18.865C18.6605 19.4794 18.4311 20.0687 18.0229 20.5032C17.6146 20.9377 17.0608 21.1817 16.4835 21.1817H4.97614V16.5482Z" fill="#D7E6F0"/>
<path d="M16.4835 21.8437H3.73211C3.56714 21.8437 3.40893 21.7739 3.29228 21.6498C3.17563 21.5257 3.11009 21.3573 3.11009 21.1817C3.11009 21.0062 3.17563 20.8378 3.29228 20.7137C3.40893 20.5896 3.56714 20.5198 3.73211 20.5198H16.4835C16.8959 20.5198 17.2914 20.3455 17.583 20.0351C17.8747 19.7248 18.0385 19.3039 18.0385 18.865C18.0385 18.4261 17.8747 18.0052 17.583 17.6949C17.2914 17.3845 16.8959 17.2102 16.4835 17.2102H3.73211C3.56714 17.2102 3.40893 17.1404 3.29228 17.0163C3.17563 16.8922 3.11009 16.7238 3.11009 16.5482C3.11009 16.3727 3.17563 16.2043 3.29228 16.0802C3.40893 15.956 3.56714 15.8863 3.73211 15.8863H16.4835C17.2258 15.8863 17.9378 16.2001 18.4627 16.7587C18.9876 17.3174 19.2825 18.075 19.2825 18.865C19.2825 19.655 18.9876 20.4126 18.4627 20.9712C17.9378 21.5298 17.2258 21.8437 16.4835 21.8437Z" fill="#6478B9"/>
<path d="M24.6733 15.8863H24.777C25.5194 15.8863 26.2313 16.2001 26.7563 16.7587C27.2812 17.3174 27.5761 18.075 27.5761 18.865C27.5761 19.2562 27.5037 19.6435 27.363 20.0049C27.2224 20.3663 27.0162 20.6946 26.7563 20.9712C26.4964 21.2478 26.1878 21.4672 25.8482 21.6169C25.5086 21.7666 25.1446 21.8437 24.777 21.8437H27.2651C27.6327 21.8437 27.9967 21.7666 28.3363 21.6169C28.6759 21.4672 28.9844 21.2478 29.2443 20.9712C29.5043 20.6946 29.7104 20.3663 29.8511 20.0049C29.9918 19.6435 30.0642 19.2562 30.0642 18.865C30.0642 18.075 29.7693 17.3174 29.2443 16.7587C28.7194 16.2001 28.0075 15.8863 27.2651 15.8863H24.6733Z" fill="#353744"/>
<path d="M29.8568 27.1391H4.35411C3.3643 27.1391 2.41502 27.5575 1.71512 28.3024C1.01521 29.0472 0.622009 30.0574 0.622009 31.1107V31.1107C0.622009 32.164 1.01521 33.1742 1.71512 33.919C2.41502 34.6638 3.3643 35.0823 4.35411 35.0823H29.8568V27.1391Z" fill="#A5C3DC"/>
<path d="M19.9045 27.1391H4.35411C3.3643 27.1391 2.41502 27.5575 1.71512 28.3024C1.01521 29.0472 0.622009 30.0574 0.622009 31.1107V31.1107C0.622009 32.164 1.01521 33.1742 1.71512 33.919C2.41502 34.6638 3.3643 35.0823 4.35411 35.0823H19.9045V27.1391Z" fill="#D7E6F0"/>
<path d="M31.1008 35.7442H4.35412C3.19933 35.7442 2.09185 35.256 1.27529 34.3871C0.458736 33.5181 0 32.3396 0 31.1107C0 29.8818 0.458736 28.7032 1.27529 27.8343C2.09185 26.9653 3.19933 26.4772 4.35412 26.4772H31.1008C31.2658 26.4772 31.424 26.5469 31.5407 26.671C31.6573 26.7952 31.7229 26.9635 31.7229 27.1391C31.7229 27.3147 31.6573 27.483 31.5407 27.6072C31.424 27.7313 31.2658 27.801 31.1008 27.801H4.35412C3.52927 27.801 2.73821 28.1497 2.15496 28.7704C1.5717 29.3911 1.24403 30.2329 1.24403 31.1107C1.24403 31.9885 1.5717 32.8303 2.15496 33.451C2.73821 34.0716 3.52927 34.4203 4.35412 34.4203H31.1008C31.2658 34.4203 31.424 34.4901 31.5407 34.6142C31.6573 34.7383 31.7229 34.9067 31.7229 35.0823C31.7229 35.2578 31.6573 35.4262 31.5407 35.5503C31.424 35.6744 31.2658 35.7442 31.1008 35.7442Z" fill="#4B55A5"/>
<path d="M21.1486 35.7442H4.35412C3.19933 35.7442 2.09185 35.256 1.27529 34.3871C0.458736 33.5181 0 32.3396 0 31.1107C0 29.8818 0.458736 28.7032 1.27529 27.8343C2.09185 26.9653 3.19933 26.4772 4.35412 26.4772H21.1486C21.3135 26.4772 21.4718 26.5469 21.5884 26.671C21.7051 26.7952 21.7706 26.9635 21.7706 27.1391C21.7706 27.3147 21.7051 27.483 21.5884 27.6072C21.4718 27.7313 21.3135 27.801 21.1486 27.801H4.35412C3.52927 27.801 2.73821 28.1497 2.15496 28.7704C1.5717 29.3911 1.24403 30.2329 1.24403 31.1107C1.24403 31.9885 1.5717 32.8303 2.15496 33.451C2.73821 34.0716 3.52927 34.4203 4.35412 34.4203H21.1486C21.3135 34.4203 21.4718 34.4901 21.5884 34.6142C21.7051 34.7383 21.7706 34.9067 21.7706 35.0823C21.7706 35.2578 21.7051 35.4262 21.5884 35.5503C21.4718 35.6744 21.3135 35.7442 21.1486 35.7442Z" fill="#6478B9"/>
<path d="M11.6738 35.7442C11.768 35.7442 11.8602 35.7145 11.9386 35.6589L13.6844 34.4203L15.4301 35.6589C15.5086 35.7145 15.6007 35.7442 15.695 35.7442V35.7442C15.7577 35.7442 15.8198 35.7311 15.8777 35.7055C15.9356 35.68 15.9883 35.6426 16.0326 35.5954C16.077 35.5482 16.1121 35.4922 16.1361 35.4305C16.1601 35.3689 16.1725 35.3028 16.1724 35.2361V29.7868H11.1963V35.2361C11.1963 35.3028 11.2086 35.3689 11.2326 35.4305C11.2566 35.4922 11.2918 35.5482 11.3361 35.5954C11.3805 35.6426 11.4331 35.68 11.491 35.7055C11.549 35.7311 11.6111 35.7442 11.6738 35.7442V35.7442Z" fill="#F04B37"/>
<path d="M36.699 21.8437H6.84219C6.49866 21.8437 6.22017 22.14 6.22017 22.5056V25.8153C6.22017 26.1808 6.49866 26.4772 6.84219 26.4772H36.699C37.0425 26.4772 37.321 26.1808 37.321 25.8153V22.5056C37.321 22.14 37.0425 21.8437 36.699 21.8437Z" fill="#FABE19"/>
<path d="M34.8329 21.8437H32.3449V26.4772H34.8329V21.8437Z" fill="#F5871E"/>
<path d="M21.1486 5.29544C20.2302 5.2942 19.3439 5.65472 18.6605 6.30753C18.1236 5.79619 17.4591 5.46118 16.7473 5.34296C16.0354 5.22474 15.3066 5.32836 14.6488 5.64131C13.9911 5.95426 13.4325 6.46315 13.0406 7.10654C12.6487 7.74992 12.4402 8.50028 12.4403 9.26701C12.4403 13.0179 14.9284 15.8863 16.7945 15.8863H20.5266C22.3926 15.8863 24.8807 13.0179 24.8807 9.26701C24.8807 8.21368 24.4875 7.2035 23.7876 6.45868C23.0877 5.71387 22.1384 5.29544 21.1486 5.29544Z" fill="#D7322D"/>
<path d="M15.5504 9.26701C16.2375 9.26701 16.7945 8.6743 16.7945 7.94315C16.7945 7.212 16.2375 6.61929 15.5504 6.61929C14.8634 6.61929 14.3064 7.212 14.3064 7.94315C14.3064 8.6743 14.8634 9.26701 15.5504 9.26701Z" fill="#F04B37"/>
<path d="M21.7706 0C21.9356 0 22.0938 0.0697389 22.2104 0.193875C22.3271 0.318011 22.3926 0.486375 22.3926 0.661929C22.3926 1.5397 22.065 2.38152 21.4817 3.0022C20.8984 3.62288 20.1074 3.97158 19.2825 3.97158H18.6605V3.30965C18.6605 2.43187 18.9882 1.59005 19.5714 0.969373C20.1547 0.348694 20.9458 0 21.7706 0V0Z" fill="#6EA5D7"/>
</svg>
