<svg width="258" height="69" viewBox="0 0 258 69" fill="none" xmlns="http://www.w3.org/2000/svg">
<path d="M91.7344 48.5664C91.474 47.8893 91.2201 47.2057 90.9727 46.5156C90.7253 45.8125 90.4714 45.1484 90.2109 44.5234C90.2109 44.4974 90.1979 44.4648 90.1719 44.4258C90.1589 44.3867 90.1393 44.3477 90.1133 44.3086C90.0742 44.2565 90.0417 44.2044 90.0156 44.1523V42.2578L89.8398 41.8867V40.4609C89.8008 40.3698 89.7422 40.2852 89.6641 40.207C89.599 40.1289 89.5273 40.0508 89.4492 39.9727C89.3711 39.8945 89.2995 39.8099 89.2344 39.7188C89.1823 39.6146 89.1562 39.4909 89.1562 39.3477C89.1432 39.2044 89.1367 39.0677 89.1367 38.9375C89.1367 38.7943 89.1367 38.6706 89.1367 38.5664C89.1367 38.4232 89.1367 38.306 89.1367 38.2148C89.1367 38.1107 89.1432 38.0065 89.1562 37.9023V35.1875L89.0586 33.7031L89.1562 33.332L89.0586 32.4531V32.082L89.1562 30.7344C89.1302 30.6693 89.1107 30.6107 89.0977 30.5586C89.0716 30.4284 89.0586 30.3372 89.0586 30.2852C89.0326 30.2331 88.987 30.1419 88.9219 30.0117C88.8698 29.8685 88.7982 29.7122 88.707 29.543C88.6289 29.3737 88.5378 29.2109 88.4336 29.0547C88.3294 28.8854 88.2253 28.7552 88.1211 28.6641C88.0169 28.5859 87.8737 28.5078 87.6914 28.4297C87.5221 28.3516 87.3268 28.2604 87.1055 28.1562C86.8971 28.0521 86.6758 27.9284 86.4414 27.7852C86.2201 27.6419 86.0117 27.4727 85.8164 27.2773C85.6992 27.1471 85.5755 27.043 85.4453 26.9648C85.3151 26.8737 85.1914 26.7956 85.0742 26.7305C84.9701 26.6654 84.8789 26.6003 84.8008 26.5352C84.7357 26.4701 84.7031 26.3854 84.7031 26.2812C84.7031 26.099 84.7617 25.9427 84.8789 25.8125C84.9961 25.6823 85.1393 25.5781 85.3086 25.5C85.4909 25.4219 85.6862 25.3698 85.8945 25.3438C86.1029 25.3047 86.2917 25.2852 86.4609 25.2852L87.1055 25.0898L88.1211 25.1875H88.4922C88.9089 25.1875 89.306 25.2201 89.6836 25.2852C90.0742 25.3372 90.3932 25.3958 90.6406 25.4609L91.7344 25.4219C91.8776 25.4219 92.0339 25.4154 92.2031 25.4023C92.3854 25.3893 92.5677 25.3633 92.75 25.3242C92.9323 25.2982 93.1016 25.2656 93.2578 25.2266C93.4141 25.1745 93.5703 25.1484 93.7266 25.1484C94 25.1484 94.2344 25.181 94.4297 25.2461C94.638 25.2982 94.8203 25.3242 94.9766 25.3242C95.3021 25.3242 95.6081 25.2852 95.8945 25.207C96.194 25.1289 96.5326 25.0898 96.9102 25.0898L97.7891 25.1484C97.8672 25.1875 97.9714 25.2396 98.1016 25.3047C98.2318 25.3698 98.3555 25.4349 98.4727 25.5C98.6029 25.5651 98.707 25.6367 98.7852 25.7148C98.8763 25.7799 98.9219 25.8516 98.9219 25.9297V26.7891C98.9219 26.9062 98.7917 27.0299 98.5312 27.1602C98.2839 27.2904 97.9974 27.4141 97.6719 27.5312C97.3594 27.6354 97.0469 27.7331 96.7344 27.8242C96.4349 27.9154 96.2331 27.987 96.1289 28.0391C95.8294 28.2214 95.4844 28.4427 95.0938 28.7031C94.7161 28.9635 94.3971 29.2565 94.1367 29.582V31.5352L93.9609 33.0977C93.9609 33.1497 93.9674 33.2214 93.9805 33.3125C94.0065 33.3906 94.0195 33.5013 94.0195 33.6445C94.0195 33.8789 93.9544 34.0807 93.8242 34.25V36.75L93.9609 37.2578C93.9609 37.2839 93.974 37.3945 94 37.5898C94.0391 37.7852 94.0781 38.013 94.1172 38.2734C94.1562 38.5339 94.1888 38.8008 94.2148 39.0742C94.2539 39.3477 94.2734 39.5755 94.2734 39.7578C94.2344 39.8229 94.2018 39.901 94.1758 39.9922C94.1497 40.0703 94.1367 40.194 94.1367 40.3633C94.1367 40.4154 94.1497 40.4674 94.1758 40.5195C94.2018 40.5586 94.2865 40.5977 94.4297 40.6367V41.7891C94.4297 41.9583 94.4297 42.1081 94.4297 42.2383C94.4297 42.3685 94.4427 42.5117 94.4688 42.668L94.7812 43.6055L95.8945 45.8711C96.0508 46.1315 96.2005 46.3984 96.3438 46.6719C96.5 46.9323 96.6562 47.1862 96.8125 47.4336C96.9818 47.681 97.1576 47.9154 97.3398 48.1367C97.5352 48.3581 97.763 48.5469 98.0234 48.7031L98.9219 48.918L99.4102 49.4258C99.7878 49.6862 100.204 49.8359 100.66 49.875C101.129 49.9141 101.598 49.9336 102.066 49.9336C102.314 49.9336 102.529 49.9336 102.711 49.9336C102.893 49.9336 103.069 49.9271 103.238 49.9141C103.421 49.888 103.609 49.8555 103.805 49.8164C104.013 49.7773 104.26 49.7253 104.547 49.6602C104.638 49.6602 104.716 49.6406 104.781 49.6016C104.859 49.5625 104.931 49.5169 104.996 49.4648C105.061 49.4128 105.126 49.3607 105.191 49.3086C105.27 49.2565 105.367 49.2174 105.484 49.1914C105.823 49.1263 106.09 49.0547 106.285 48.9766C106.48 48.8854 106.65 48.7812 106.793 48.6641C106.949 48.5469 107.112 48.4102 107.281 48.2539C107.451 48.0846 107.672 47.8893 107.945 47.668L108.453 47.4336C108.466 47.4336 108.505 47.349 108.57 47.1797C108.648 47.0104 108.733 46.7956 108.824 46.5352C108.928 46.2747 109.033 45.9883 109.137 45.6758C109.254 45.3503 109.365 45.0443 109.469 44.7578C109.573 44.4583 109.664 44.1979 109.742 43.9766C109.833 43.7552 109.898 43.599 109.938 43.5078C110.016 43.3516 110.087 43.1237 110.152 42.8242C110.217 42.5117 110.276 42.1862 110.328 41.8477C110.393 41.4961 110.452 41.151 110.504 40.8125C110.556 40.4609 110.608 40.1549 110.66 39.8945C110.66 39.6602 110.641 39.3802 110.602 39.0547C110.562 38.7292 110.543 38.4232 110.543 38.1367L110.445 37.6875L110.855 36.9453C110.855 36.8932 110.816 36.7956 110.738 36.6523C110.673 36.4961 110.608 36.3919 110.543 36.3398V35.0508L110.816 32.8242L110.582 30.9688C110.582 30.9167 110.576 30.8385 110.562 30.7344C110.549 30.6172 110.543 30.4674 110.543 30.2852C110.517 30.2331 110.452 30.1224 110.348 29.9531C110.243 29.7839 110.139 29.6016 110.035 29.4062L109.605 28.6641C109.566 28.638 109.495 28.599 109.391 28.5469C109.286 28.4818 109.176 28.4232 109.059 28.3711C108.954 28.306 108.85 28.2539 108.746 28.2148C108.655 28.1628 108.59 28.1367 108.551 28.1367C108.434 28.0846 108.297 28.026 108.141 27.9609C107.997 27.8828 107.848 27.8112 107.691 27.7461C107.535 27.668 107.379 27.6029 107.223 27.5508C107.079 27.4857 106.949 27.4401 106.832 27.4141C106.728 27.375 106.572 27.3424 106.363 27.3164C106.155 27.2904 105.94 27.2513 105.719 27.1992C105.51 27.1471 105.328 27.0755 105.172 26.9844C105.016 26.8932 104.938 26.7565 104.938 26.5742V26.2812L105.582 26.1445L106.285 25.7734C106.52 25.7214 106.754 25.6888 106.988 25.6758C107.236 25.6628 107.483 25.6497 107.73 25.6367C107.978 25.6237 108.219 25.5977 108.453 25.5586C108.688 25.5195 108.902 25.4414 109.098 25.3242H109.938C110.393 25.3242 110.823 25.3438 111.227 25.3828C111.643 25.4089 112.105 25.4219 112.613 25.4219H113.727C114.221 25.1615 114.742 24.9727 115.289 24.8555C115.849 24.7383 116.422 24.6797 117.008 24.6797C117.06 24.6797 117.138 24.6927 117.242 24.7188C117.359 24.7448 117.477 24.7839 117.594 24.8359C117.711 24.888 117.809 24.9596 117.887 25.0508C117.978 25.1289 118.023 25.2201 118.023 25.3242V26.4766L117.848 26.5742C117.613 26.7174 117.359 26.8021 117.086 26.8281C116.826 26.8542 116.565 26.8802 116.305 26.9062C116.005 26.9453 115.712 27.0039 115.426 27.082C115.139 27.1602 114.833 27.2253 114.508 27.2773C114.117 27.5638 113.831 27.9154 113.648 28.332C113.479 28.7357 113.349 29.1654 113.258 29.6211C113.18 30.0638 113.108 30.513 113.043 30.9688C112.978 31.4115 112.867 31.8151 112.711 32.1797V36.75L112.438 37.4922V39.8945C112.385 39.9987 112.353 40.1029 112.34 40.207C112.34 40.2982 112.34 40.4284 112.34 40.5977C112.34 40.7539 112.353 40.8776 112.379 40.9688C112.418 41.0599 112.438 41.2096 112.438 41.418L112.184 42.1211C112.118 42.3815 112.04 42.6354 111.949 42.8828C111.858 43.1172 111.786 43.3711 111.734 43.6445L111.324 45.3047C111.22 45.6432 111.103 45.9622 110.973 46.2617C110.842 46.5482 110.693 46.8346 110.523 47.1211C110.458 47.2643 110.38 47.388 110.289 47.4922C110.198 47.5833 110.1 47.6745 109.996 47.7656C109.905 47.8568 109.814 47.9544 109.723 48.0586C109.645 48.1628 109.586 48.2865 109.547 48.4297C109.378 48.8203 109.026 49.2174 108.492 49.6211C108.232 49.8424 107.958 50.0703 107.672 50.3047C107.385 50.5391 107.105 50.7604 106.832 50.9688C106.728 51.0208 106.624 51.0924 106.52 51.1836C106.428 51.2617 106.331 51.3464 106.227 51.4375C106.135 51.5156 106.038 51.5872 105.934 51.6523C105.829 51.7174 105.712 51.763 105.582 51.7891H104.938L104.039 52.2188C103.883 52.2708 103.701 52.3034 103.492 52.3164C103.297 52.3164 103.102 52.3164 102.906 52.3164H102.066L100.777 52.4336L99.7812 52.3164L98.2773 52.4336C98.2643 52.4076 98.1992 52.375 98.082 52.3359C97.9779 52.2969 97.8542 52.2448 97.7109 52.1797C97.5417 52.1016 97.3529 52.0299 97.1445 51.9648C96.9492 51.8997 96.7669 51.8411 96.5977 51.7891L95.9922 51.6523C95.6667 51.5482 95.3672 51.4701 95.0938 51.418C94.8333 51.3529 94.6901 51.3073 94.6641 51.2812C94.5729 51.2292 94.4948 51.1576 94.4297 51.0664C94.3646 50.9622 94.2995 50.8646 94.2344 50.7734C94.1823 50.6693 94.1172 50.5716 94.0391 50.4805C93.974 50.3893 93.8893 50.3177 93.7852 50.2656C93.3815 50.0833 93.0039 49.862 92.6523 49.6016C92.3008 49.3411 91.9948 48.9961 91.7344 48.5664ZM121.148 52.8633C120.797 52.9544 120.452 53.013 120.113 53.0391C119.775 53.0781 119.423 53.0977 119.059 53.0977L118.551 53.1367C118.395 53.1367 118.297 53.1107 118.258 53.0586C118.167 52.9414 118.082 52.8177 118.004 52.6875C117.926 52.5443 117.887 52.3685 117.887 52.1602C117.887 52.0169 117.926 51.8802 118.004 51.75C118.082 51.6198 118.167 51.5286 118.258 51.4766C118.401 51.4245 118.531 51.3984 118.648 51.3984C118.766 51.3854 118.883 51.3789 119 51.3789C119.117 51.3789 119.228 51.3724 119.332 51.3594C119.436 51.3333 119.547 51.3073 119.664 51.2812C119.964 51.1641 120.198 51.0339 120.367 50.8906C120.536 50.7474 120.667 50.5977 120.758 50.4414C120.849 50.2721 120.901 50.1029 120.914 49.9336C120.94 49.7643 120.953 49.5951 120.953 49.4258L120.895 48.3711C120.868 48.3451 120.836 48.293 120.797 48.2148C120.758 48.1237 120.719 48.0651 120.68 48.0391L120.582 47.7266C120.582 47.5964 120.634 47.4987 120.738 47.4336C120.842 47.3685 120.895 47.2448 120.895 47.0625L120.758 46.1055C120.758 45.8971 120.771 45.6888 120.797 45.4805C120.823 45.2591 120.908 45.0638 121.051 44.8945V43.5469L120.895 43.1367L121.148 42.3164V41.7891C121.148 41.4635 121.122 41.1315 121.07 40.793C121.018 40.4544 120.927 40.1419 120.797 39.8555C120.68 39.556 120.51 39.2826 120.289 39.0352C120.081 38.7878 119.82 38.5859 119.508 38.4297L118.551 37.9219C118.447 37.8958 118.349 37.8177 118.258 37.6875C118.167 37.5573 118.108 37.4336 118.082 37.3164C118.108 37.2513 118.154 37.1602 118.219 37.043C118.284 36.9258 118.355 36.8151 118.434 36.7109C118.525 36.5938 118.622 36.4961 118.727 36.418C118.844 36.3268 118.954 36.2812 119.059 36.2812H120.035C120.048 36.2812 120.087 36.2617 120.152 36.2227C120.217 36.1836 120.283 36.1445 120.348 36.1055C120.413 36.0534 120.478 36.0078 120.543 35.9688C120.608 35.9167 120.654 35.8841 120.68 35.8711C120.693 35.8581 120.732 35.8385 120.797 35.8125C120.823 35.7995 120.855 35.7865 120.895 35.7734H121.773C121.786 35.7604 121.812 35.7344 121.852 35.6953C121.904 35.6562 121.962 35.6107 122.027 35.5586C122.092 35.5065 122.164 35.4414 122.242 35.3633C122.268 35.3372 122.333 35.3242 122.438 35.3242C122.542 35.3242 122.646 35.3242 122.75 35.3242C122.802 35.3242 122.88 35.3372 122.984 35.3633C123.102 35.3763 123.212 35.4089 123.316 35.4609C123.434 35.513 123.531 35.5781 123.609 35.6562C123.688 35.7214 123.727 35.806 123.727 35.9102C123.727 35.9232 123.72 35.9297 123.707 35.9297C123.707 35.9297 123.707 35.9362 123.707 35.9492L123.688 35.9688C123.688 35.9948 123.661 36.0794 123.609 36.2227C123.57 36.3659 123.544 36.4505 123.531 36.4766V36.6719C123.531 36.6979 123.551 36.7435 123.59 36.8086C123.629 36.8607 123.668 36.9193 123.707 36.9844C123.746 37.0365 123.779 37.0885 123.805 37.1406C123.844 37.1797 123.863 37.2057 123.863 37.2188L124.273 37.9219C124.299 38.026 124.378 38.0911 124.508 38.1172C124.638 38.1302 124.749 38.1367 124.84 38.1367C125.022 38.1367 125.191 38.0651 125.348 37.9219C125.504 37.7656 125.641 37.6354 125.758 37.5312L126.363 36.6719L126.402 36.6328C126.441 36.5938 126.461 36.5742 126.461 36.5742C126.487 36.5742 126.559 36.5482 126.676 36.4961C126.793 36.444 126.871 36.4049 126.91 36.3789C126.923 36.3659 126.969 36.3138 127.047 36.2227C127.125 36.1315 127.21 36.0339 127.301 35.9297C127.392 35.8255 127.477 35.7344 127.555 35.6562C127.633 35.5651 127.685 35.513 127.711 35.5C127.724 35.487 127.77 35.4674 127.848 35.4414C127.939 35.4154 128.03 35.3893 128.121 35.3633C128.225 35.3372 128.316 35.3177 128.395 35.3047C128.486 35.2786 128.538 35.2656 128.551 35.2656C128.72 35.2005 128.85 35.1354 128.941 35.0703C129.033 35.0052 129.117 34.9531 129.195 34.9141C129.286 34.862 129.391 34.8229 129.508 34.7969C129.625 34.7708 129.794 34.7578 130.016 34.7578H130.406L131.227 35.168C131.24 35.168 131.279 35.1745 131.344 35.1875C131.409 35.1875 131.48 35.194 131.559 35.207C131.637 35.2201 131.708 35.2331 131.773 35.2461C131.839 35.2461 131.884 35.2526 131.91 35.2656C131.962 35.2656 132.06 35.2786 132.203 35.3047C132.359 35.3177 132.438 35.3372 132.438 35.3633C132.464 35.3633 132.535 35.4023 132.652 35.4805C132.77 35.5456 132.848 35.6107 132.887 35.6758C132.9 35.6758 132.932 35.6562 132.984 35.6172C133.036 35.5781 133.082 35.5586 133.121 35.5586C133.303 35.6237 133.479 35.7409 133.648 35.9102C133.818 36.0794 133.954 36.2227 134.059 36.3398C134.124 36.418 134.202 36.5286 134.293 36.6719C134.397 36.8021 134.495 36.9323 134.586 37.0625C134.677 37.1927 134.755 37.3099 134.82 37.4141C134.898 37.5052 134.938 37.5508 134.938 37.5508C134.938 37.5638 134.944 37.6289 134.957 37.7461C134.983 37.8633 135.009 38.0065 135.035 38.1758C135.061 38.332 135.087 38.4948 135.113 38.6641C135.139 38.8333 135.159 38.9701 135.172 39.0742L135.035 41.1445L135.309 42.9023C135.309 43.1107 135.289 43.2669 135.25 43.3711C135.211 43.4753 135.165 43.5599 135.113 43.625C135.061 43.6901 135.016 43.7552 134.977 43.8203C134.938 43.8724 134.918 43.957 134.918 44.0742C134.918 44.2565 134.951 44.4128 135.016 44.543C135.094 44.6732 135.146 44.8099 135.172 44.9531C135.172 44.9792 135.178 45.0508 135.191 45.168C135.204 45.2852 135.217 45.4284 135.23 45.5977C135.243 45.7539 135.257 45.9167 135.27 46.0859C135.283 46.2422 135.289 46.3724 135.289 46.4766V48.0586C135.198 48.2409 135.139 48.3841 135.113 48.4883C135.087 48.5794 135.074 48.6966 135.074 48.8398L135.035 49.8555L135.113 50.6953C135.113 50.7344 135.12 50.7865 135.133 50.8516C135.159 50.9036 135.185 50.9427 135.211 50.9688C135.302 51.0339 135.465 51.0859 135.699 51.125C135.947 51.1641 136.181 51.2617 136.402 51.418L136.559 51.5742C136.598 51.7565 136.682 51.9128 136.812 52.043C136.943 52.1732 137.008 52.3099 137.008 52.4531C137.008 52.5964 136.988 52.7396 136.949 52.8828C136.923 53.026 136.819 53.0977 136.637 53.0977H136.559C136.298 53.1237 136.057 53.1432 135.836 53.1562C135.615 53.1823 135.374 53.1953 135.113 53.1953C134.996 53.1953 134.866 53.1888 134.723 53.1758C134.579 53.1758 134.436 53.1628 134.293 53.1367C134.059 53.1107 133.831 53.0911 133.609 53.0781C133.401 53.0651 133.193 53.0586 132.984 53.0586C132.698 53.0586 132.411 53.0651 132.125 53.0781C131.852 53.0911 131.565 53.1107 131.266 53.1367C131.201 53.1107 131.116 53.0911 131.012 53.0781C130.921 53.0651 130.823 53.0586 130.719 53.0586C130.536 53.0586 130.361 53.0456 130.191 53.0195C130.022 53.0065 129.859 53 129.703 53H129.195C129.013 53 128.889 52.9154 128.824 52.7461C128.759 52.5768 128.727 52.349 128.727 52.0625C128.727 51.8802 128.779 51.7044 128.883 51.5352C128.987 51.3659 129.169 51.2682 129.43 51.2422L130.719 51.0664C130.901 51.0534 131.005 50.9753 131.031 50.832C131.07 50.6758 131.103 50.5521 131.129 50.4609L131.227 50.2656C131.318 50.1094 131.383 49.9857 131.422 49.8945C131.461 49.7904 131.487 49.6992 131.5 49.6211C131.526 49.5299 131.539 49.4323 131.539 49.3281C131.552 49.224 131.572 49.0872 131.598 48.918L131.695 48.5078L131.598 48V46.8867L131.461 45.832L131.695 44.9336C131.669 44.7122 131.65 44.4974 131.637 44.2891C131.637 44.0677 131.637 43.8398 131.637 43.6055C131.637 43.3841 131.637 43.1628 131.637 42.9414C131.65 42.707 131.669 42.4792 131.695 42.2578C131.747 42.1406 131.773 42.043 131.773 41.9648C131.786 41.8737 131.793 41.737 131.793 41.5547C131.78 41.5286 131.721 41.457 131.617 41.3398C131.513 41.2096 131.461 41.1315 131.461 41.1055C131.435 41.0664 131.402 40.9818 131.363 40.8516C131.337 40.7083 131.305 40.5586 131.266 40.4023C131.24 40.2461 131.214 40.0964 131.188 39.9531C131.161 39.8099 131.142 39.7188 131.129 39.6797C131.116 39.6667 131.077 39.6276 131.012 39.5625C130.96 39.4974 130.901 39.4323 130.836 39.3672C130.771 39.3021 130.706 39.2435 130.641 39.1914C130.589 39.1263 130.556 39.0872 130.543 39.0742C130.543 39.0612 130.53 39.0026 130.504 38.8984C130.478 38.7943 130.445 38.7422 130.406 38.7422C130.38 38.7031 130.348 38.651 130.309 38.5859C130.27 38.5078 130.237 38.4557 130.211 38.4297C130.172 38.4167 130.094 38.3971 129.977 38.3711C129.859 38.332 129.736 38.2995 129.605 38.2734C129.488 38.2474 129.371 38.2214 129.254 38.1953C129.15 38.1693 129.078 38.1497 129.039 38.1367H128.785C128.03 38.1367 127.366 38.2409 126.793 38.4492C126.233 38.6445 125.673 38.9896 125.113 39.4844C125.061 39.5234 124.99 39.5885 124.898 39.6797C124.807 39.7708 124.716 39.862 124.625 39.9531C124.534 40.0443 124.449 40.1289 124.371 40.207C124.306 40.2721 124.273 40.3112 124.273 40.3242C124.26 40.3372 124.247 40.3828 124.234 40.4609C124.221 40.5391 124.208 40.6237 124.195 40.7148C124.182 40.806 124.169 40.8906 124.156 40.9688C124.156 41.0469 124.156 41.0924 124.156 41.1055C124.104 41.2878 124.052 41.4635 124 41.6328C123.948 41.8021 123.922 41.9974 123.922 42.2188C123.922 42.5964 123.941 42.9219 123.98 43.1953C124.033 43.4688 124.059 43.7747 124.059 44.1133C124.059 44.3216 124.026 44.5104 123.961 44.6797C123.896 44.8359 123.863 45.0638 123.863 45.3633L124.059 46.75L123.863 47.7266V48C123.889 48.026 123.915 48.1107 123.941 48.2539C123.98 48.3971 124 48.4818 124 48.5078V49.7578L124.059 50.168C124.072 50.207 124.111 50.2591 124.176 50.3242C124.241 50.3763 124.312 50.4349 124.391 50.5C124.469 50.5521 124.54 50.6042 124.605 50.6562C124.671 50.6953 124.716 50.7214 124.742 50.7344C124.768 50.7604 124.82 50.793 124.898 50.832C124.99 50.8581 125.087 50.8906 125.191 50.9297C125.296 50.9557 125.393 50.9818 125.484 51.0078C125.589 51.0339 125.667 51.0534 125.719 51.0664C125.823 51.1185 125.914 51.151 125.992 51.1641C126.07 51.1771 126.142 51.1901 126.207 51.2031C126.285 51.2031 126.35 51.2161 126.402 51.2422C126.467 51.2682 126.533 51.3268 126.598 51.418C126.637 51.457 126.682 51.4831 126.734 51.4961C126.786 51.4961 126.832 51.5091 126.871 51.5352C126.923 51.5482 126.962 51.5742 126.988 51.6133C127.014 51.6523 127.027 51.7174 127.027 51.8086L127.066 52.2578C127.066 52.362 127.047 52.4531 127.008 52.5312C126.969 52.5964 126.878 52.6745 126.734 52.7656C126.617 52.8307 126.52 52.9089 126.441 53C126.376 53.0911 126.272 53.1367 126.129 53.1367C125.986 53.1367 125.842 53.1628 125.699 53.2148C125.556 53.2799 125.452 53.3125 125.387 53.3125H125.152C124.605 53.2214 124.033 53.1172 123.434 53C122.848 52.8698 122.255 52.8047 121.656 52.8047L121.148 52.8633ZM140.328 53C140.172 53 140.048 53.026 139.957 53.0781C139.879 53.1432 139.794 53.1758 139.703 53.1758C139.651 53.1758 139.586 53.1497 139.508 53.0977C139.443 53.0456 139.339 52.9805 139.195 52.9023C139.169 52.8893 139.15 52.8568 139.137 52.8047C139.137 52.7396 139.124 52.668 139.098 52.5898C139.072 52.5117 139.052 52.4141 139.039 52.2969C139.039 52.2839 139.052 52.2513 139.078 52.1992C139.117 52.1341 139.156 52.069 139.195 52.0039C139.234 51.9258 139.273 51.8542 139.312 51.7891C139.352 51.724 139.384 51.6784 139.41 51.6523L139.781 51.4375H140.211C140.51 51.4375 140.777 51.418 141.012 51.3789C141.259 51.3268 141.454 51.1771 141.598 50.9297C141.65 50.487 141.689 50.0638 141.715 49.6602C141.741 49.2565 141.806 48.8594 141.91 48.4688L142.145 47.5508V45.7344L142.242 43.9766V42.8242C142.242 42.7982 142.229 42.7331 142.203 42.6289C142.177 42.5117 142.151 42.388 142.125 42.2578C142.099 42.1146 142.073 41.9844 142.047 41.8672C142.021 41.737 142.008 41.6393 142.008 41.5742V39.7188C141.956 39.5755 141.871 39.3997 141.754 39.1914C141.637 38.9831 141.52 38.8333 141.402 38.7422L140.797 38.5469C140.576 38.3906 140.374 38.2214 140.191 38.0391C140.022 37.8568 139.885 37.6289 139.781 37.3555C139.781 37.2122 139.814 37.1016 139.879 37.0234C139.944 36.9453 140.029 36.8867 140.133 36.8477C140.237 36.8086 140.348 36.776 140.465 36.75C140.582 36.724 140.693 36.6979 140.797 36.6719L142.242 35.9297C142.359 35.8776 142.457 35.8385 142.535 35.8125C142.626 35.7734 142.711 35.7344 142.789 35.6953C142.867 35.6562 142.939 35.6107 143.004 35.5586C143.082 35.5065 143.167 35.4284 143.258 35.3242L143.824 35.2852C143.889 35.2852 143.987 35.2917 144.117 35.3047C144.26 35.3177 144.345 35.3242 144.371 35.3242C144.41 35.3242 144.475 35.3307 144.566 35.3438C144.658 35.3568 144.755 35.3763 144.859 35.4023C144.964 35.4284 145.061 35.4544 145.152 35.4805C145.243 35.5065 145.309 35.526 145.348 35.5391C145.465 35.5911 145.536 35.7018 145.562 35.8711C145.602 36.0273 145.621 36.1706 145.621 36.3008V36.9258L145.484 37.3945C145.419 38.2409 145.387 39.0742 145.387 39.8945C145.387 40.7148 145.374 41.5612 145.348 42.4336L145.25 43.1367C145.237 43.1497 145.224 43.1953 145.211 43.2734C145.211 43.3516 145.211 43.4427 145.211 43.5469C145.211 43.651 145.211 43.7552 145.211 43.8594C145.211 43.9505 145.211 44.0221 145.211 44.0742C145.211 44.1654 145.211 44.2695 145.211 44.3867C145.211 44.5039 145.211 44.6146 145.211 44.7188C145.211 44.8229 145.211 44.9141 145.211 44.9922C145.224 45.0573 145.237 45.0898 145.25 45.0898C145.25 45.1289 145.263 45.2201 145.289 45.3633C145.315 45.4935 145.335 45.5716 145.348 45.5977V46.0078C145.348 46.0469 145.341 46.151 145.328 46.3203C145.315 46.4896 145.302 46.6849 145.289 46.9062C145.276 47.1146 145.263 47.3229 145.25 47.5312C145.25 47.7266 145.25 47.8698 145.25 47.9609C145.25 48.0781 145.257 48.2669 145.27 48.5273C145.296 48.7747 145.322 49.0417 145.348 49.3281C145.387 49.6146 145.419 49.888 145.445 50.1484C145.471 50.3958 145.484 50.5716 145.484 50.6758C145.484 50.819 145.556 50.9362 145.699 51.0273C145.855 51.1055 145.979 51.1576 146.07 51.1836C146.109 51.1836 146.188 51.1901 146.305 51.2031C146.435 51.2161 146.572 51.2292 146.715 51.2422C146.858 51.2552 146.988 51.2682 147.105 51.2812C147.236 51.2812 147.327 51.2812 147.379 51.2812C147.47 51.3854 147.542 51.4961 147.594 51.6133C147.659 51.7305 147.691 51.8802 147.691 52.0625C147.691 52.2448 147.672 52.4206 147.633 52.5898C147.607 52.7591 147.535 52.8763 147.418 52.9414C147.262 53.0716 147.086 53.1432 146.891 53.1562C146.708 53.1823 146.513 53.1953 146.305 53.1953H145.953L145.484 53H143.082C143.069 53 142.984 52.987 142.828 52.9609C142.672 52.9219 142.568 52.9023 142.516 52.9023H141.969L140.328 53ZM140.895 27.1211L141.5 26.5156L142.145 26.0078L142.34 25.5977C142.496 25.4805 142.672 25.4154 142.867 25.4023C143.062 25.3763 143.238 25.3633 143.395 25.3633H143.59C143.603 25.3763 143.642 25.3958 143.707 25.4219C143.772 25.4479 143.837 25.474 143.902 25.5C143.967 25.526 144.026 25.5521 144.078 25.5781C144.143 25.5911 144.189 25.5977 144.215 25.5977C144.267 25.6237 144.345 25.6497 144.449 25.6758C144.566 25.6888 144.684 25.7083 144.801 25.7344C144.918 25.7474 145.029 25.7604 145.133 25.7734C145.237 25.7734 145.309 25.7734 145.348 25.7734C145.4 25.7865 145.458 25.8646 145.523 26.0078C145.589 26.151 145.641 26.3138 145.68 26.4961C145.732 26.6654 145.771 26.8346 145.797 27.0039C145.836 27.1602 145.855 27.2643 145.855 27.3164C145.855 27.6419 145.816 27.9479 145.738 28.2344C145.673 28.5078 145.51 28.7552 145.25 28.9766C145.237 28.9896 145.198 29.0091 145.133 29.0352C145.081 29.0482 145.022 29.0677 144.957 29.0938C144.892 29.1068 144.827 29.1263 144.762 29.1523C144.71 29.1654 144.684 29.1719 144.684 29.1719C144.671 29.1979 144.638 29.2435 144.586 29.3086C144.534 29.3607 144.475 29.4193 144.41 29.4844C144.345 29.5365 144.28 29.5885 144.215 29.6406C144.15 29.6797 144.111 29.7057 144.098 29.7188C144.02 29.8099 143.902 29.862 143.746 29.875C143.603 29.888 143.466 29.8945 143.336 29.8945H142.574C142.431 29.8945 142.307 29.888 142.203 29.875C142.099 29.849 141.956 29.7643 141.773 29.6211C141.552 29.2956 141.344 28.9961 141.148 28.7227C140.953 28.4492 140.855 28.1042 140.855 27.6875L140.895 27.1211ZM154.059 44.3477C154.059 44.0742 153.98 43.8594 153.824 43.7031C153.681 43.5339 153.538 43.332 153.395 43.0977C153.395 43.0716 153.382 42.9935 153.355 42.8633C153.329 42.7201 153.31 42.6159 153.297 42.5508C153.232 42.2643 153.173 42.069 153.121 41.9648C153.069 41.8607 153.017 41.776 152.965 41.7109C152.913 41.6458 152.848 41.5742 152.77 41.4961C152.704 41.4049 152.62 41.2422 152.516 41.0078C152.516 40.9688 152.503 40.8971 152.477 40.793C152.464 40.6758 152.444 40.5651 152.418 40.4609C152.392 40.3438 152.366 40.2396 152.34 40.1484C152.327 40.0443 152.314 39.9792 152.301 39.9531C152.197 39.6927 152.079 39.4453 151.949 39.2109C151.832 38.9766 151.715 38.7422 151.598 38.5078C151.493 38.2734 151.396 38.0326 151.305 37.7852C151.227 37.5247 151.181 37.2448 151.168 36.9453C150.947 36.8021 150.693 36.6849 150.406 36.5938C150.12 36.4896 149.84 36.3789 149.566 36.2617C149.306 36.1315 149.085 35.9622 148.902 35.7539C148.72 35.5456 148.629 35.2656 148.629 34.9141C148.629 34.7969 148.668 34.6992 148.746 34.6211C148.824 34.5299 148.922 34.4648 149.039 34.4258C149.156 34.3737 149.28 34.3411 149.41 34.3281C149.54 34.3021 149.664 34.2891 149.781 34.2891L150.914 34.4844C151.656 34.6536 152.398 34.7969 153.141 34.9141C153.896 35.0312 154.658 35.0898 155.426 35.0898C155.66 35.0898 155.862 35.0247 156.031 34.8945C156.109 34.8555 156.194 34.8294 156.285 34.8164C156.389 34.8034 156.493 34.7969 156.598 34.7969C156.858 34.7969 157.086 34.8424 157.281 34.9336C157.477 35.0117 157.574 35.2005 157.574 35.5C157.574 35.7214 157.522 35.8841 157.418 35.9883C157.314 36.0924 157.177 36.1771 157.008 36.2422C156.852 36.2943 156.682 36.3398 156.5 36.3789C156.318 36.4049 156.142 36.4635 155.973 36.5547C155.816 36.6328 155.686 36.75 155.582 36.9062C155.478 37.0495 155.426 37.2643 155.426 37.5508C155.426 37.7331 155.445 37.9544 155.484 38.2148C155.523 38.4622 155.576 38.7292 155.641 39.0156C155.719 39.3021 155.797 39.5951 155.875 39.8945C155.966 40.181 156.051 40.4609 156.129 40.7344L156.324 41.4375C156.324 41.5286 156.357 41.6654 156.422 41.8477C156.5 42.0299 156.546 42.1667 156.559 42.2578C156.624 42.401 156.682 42.6094 156.734 42.8828C156.799 43.1562 156.865 43.4557 156.93 43.7812C156.995 44.1068 157.073 44.4388 157.164 44.7773C157.255 45.1029 157.359 45.4023 157.477 45.6758C157.607 45.9492 157.757 46.1771 157.926 46.3594C158.095 46.5286 158.297 46.6133 158.531 46.6133C158.635 46.6133 158.733 46.5872 158.824 46.5352C158.915 46.4701 159 46.3919 159.078 46.3008C159.156 46.2096 159.221 46.1185 159.273 46.0273C159.339 45.9232 159.404 45.8385 159.469 45.7734C159.521 45.4349 159.586 45.1419 159.664 44.8945C159.755 44.6341 159.853 44.3932 159.957 44.1719C160.074 43.9375 160.191 43.7031 160.309 43.4688C160.426 43.2344 160.543 42.9674 160.66 42.668C160.725 42.3685 160.816 42.0625 160.934 41.75C161.051 41.4375 161.129 41.1315 161.168 40.832C161.168 40.806 161.181 40.7669 161.207 40.7148C161.246 40.6628 161.279 40.6237 161.305 40.5977C161.318 40.5716 161.363 40.5065 161.441 40.4023C161.52 40.2852 161.559 40.2135 161.559 40.1875V39.582C161.585 39.4518 161.637 39.3411 161.715 39.25C161.806 39.1458 161.897 39.0482 161.988 38.957C162.079 38.8529 162.158 38.7487 162.223 38.6445C162.301 38.5404 162.34 38.4167 162.34 38.2734L162.066 37.8047C162.053 37.7526 162.047 37.5573 162.047 37.2188C162.047 37.1146 162.047 37.0169 162.047 36.9258C162.047 36.8216 162.053 36.737 162.066 36.6719C161.962 36.6589 161.786 36.6393 161.539 36.6133C161.292 36.5742 161.038 36.5221 160.777 36.457C160.517 36.3919 160.283 36.3008 160.074 36.1836C159.879 36.0534 159.781 35.8906 159.781 35.6953C159.781 35.487 159.859 35.3242 160.016 35.207C160.185 35.0898 160.4 34.9727 160.66 34.8555C160.777 34.8815 160.901 34.8945 161.031 34.8945C161.161 34.8945 161.285 34.8945 161.402 34.8945C161.572 34.8945 161.734 34.8945 161.891 34.8945C162.06 34.8815 162.242 34.8555 162.438 34.8164C162.867 34.7513 163.29 34.7318 163.707 34.7578C164.137 34.7708 164.56 34.7448 164.977 34.6797C165.133 34.6536 165.263 34.582 165.367 34.4648C165.484 34.3477 165.647 34.2891 165.855 34.2891C166.181 34.2891 166.402 34.3737 166.52 34.543C166.637 34.6992 166.695 34.9271 166.695 35.2266C166.695 35.4609 166.624 35.6693 166.48 35.8516C166.35 36.0208 166.181 36.1771 165.973 36.3203C165.764 36.4505 165.536 36.5742 165.289 36.6914C165.042 36.8086 164.801 36.9258 164.566 37.043C164.345 37.1471 164.143 37.2643 163.961 37.3945C163.792 37.5117 163.681 37.6484 163.629 37.8047C163.577 37.9219 163.538 38.0651 163.512 38.2344C163.486 38.4036 163.46 38.5794 163.434 38.7617C163.408 38.931 163.375 39.1003 163.336 39.2695C163.31 39.4258 163.271 39.5625 163.219 39.6797C163.193 39.7448 163.141 39.862 163.062 40.0312C162.997 40.1875 162.913 40.3633 162.809 40.5586C162.691 40.7799 162.581 41.0013 162.477 41.2227C162.372 41.431 162.294 41.6068 162.242 41.75C162.099 41.9844 161.969 42.2708 161.852 42.6094C161.734 42.9479 161.676 43.2669 161.676 43.5664L161.695 43.8008C161.526 44.0221 161.383 44.2174 161.266 44.3867C161.148 44.543 161.044 44.6992 160.953 44.8555C160.862 45.0117 160.777 45.181 160.699 45.3633C160.621 45.5326 160.536 45.7344 160.445 45.9688C160.432 46.0078 160.406 46.0859 160.367 46.2031C160.328 46.3203 160.289 46.444 160.25 46.5742C160.211 46.7044 160.172 46.8281 160.133 46.9453C160.107 47.0495 160.087 47.1081 160.074 47.1211C159.905 47.4727 159.781 47.8438 159.703 48.2344C159.638 48.625 159.547 49.0091 159.43 49.3867C159.417 49.4388 159.371 49.543 159.293 49.6992C159.215 49.8424 159.117 50.0182 159 50.2266C158.896 50.4349 158.792 50.6302 158.688 50.8125C158.596 50.9948 158.544 51.1185 158.531 51.1836C158.479 51.2878 158.434 51.4766 158.395 51.75C158.355 52.0234 158.297 52.3034 158.219 52.5898C158.154 52.8763 158.062 53.1302 157.945 53.3516C157.828 53.5729 157.659 53.6836 157.438 53.6836C157.164 53.6836 156.93 53.5599 156.734 53.3125C156.552 53.0781 156.389 52.7982 156.246 52.4727C156.116 52.1341 156.005 51.7956 155.914 51.457C155.823 51.1055 155.738 50.832 155.66 50.6367C155.66 50.5846 155.628 50.474 155.562 50.3047C155.497 50.1354 155.452 50.0443 155.426 50.0312C155.309 49.7839 155.211 49.5495 155.133 49.3281C155.068 49.0938 155.009 48.8594 154.957 48.625C154.905 48.3906 154.859 48.1497 154.82 47.9023C154.781 47.6549 154.729 47.3945 154.664 47.1211C154.638 46.9518 154.579 46.763 154.488 46.5547C154.41 46.3464 154.326 46.138 154.234 45.9297C154.156 45.7214 154.085 45.513 154.02 45.3047C153.954 45.0964 153.922 44.901 153.922 44.7188L154.059 44.3477ZM167.398 44.4453C167.398 44.3802 167.411 44.2565 167.438 44.0742C167.464 43.8789 167.49 43.6771 167.516 43.4688C167.555 43.2474 167.581 43.0391 167.594 42.8438C167.62 42.6484 167.633 42.5182 167.633 42.4531C167.685 41.8281 167.822 41.1901 168.043 40.5391C168.277 39.888 168.57 39.263 168.922 38.6641C169.273 38.0521 169.677 37.4922 170.133 36.9844C170.602 36.4766 171.109 36.0469 171.656 35.6953C171.669 35.6693 171.734 35.6237 171.852 35.5586C171.982 35.4935 172.118 35.4284 172.262 35.3633C172.405 35.2982 172.542 35.2331 172.672 35.168C172.802 35.1029 172.88 35.0573 172.906 35.0312C172.997 34.9922 173.115 34.9271 173.258 34.8359C173.414 34.7318 173.57 34.6341 173.727 34.543C173.883 34.4388 174.039 34.3477 174.195 34.2695C174.352 34.1914 174.495 34.1523 174.625 34.1523C174.742 34.1523 174.833 34.1654 174.898 34.1914C174.977 34.2174 175.068 34.2565 175.172 34.3086C175.393 34.2826 175.602 34.263 175.797 34.25C176.005 34.224 176.214 34.2109 176.422 34.2109C176.643 34.2109 176.852 34.224 177.047 34.25C177.242 34.263 177.451 34.2826 177.672 34.3086C177.672 34.3086 177.698 34.3216 177.75 34.3477C177.802 34.3607 177.861 34.3802 177.926 34.4062C177.991 34.4323 178.056 34.4583 178.121 34.4844C178.186 34.5104 178.238 34.5299 178.277 34.543C178.316 34.556 178.395 34.5951 178.512 34.6602C178.629 34.7122 178.759 34.7773 178.902 34.8555C179.046 34.9336 179.182 35.0052 179.312 35.0703C179.443 35.1224 179.534 35.1549 179.586 35.168C179.586 35.181 179.632 35.2005 179.723 35.2266C179.814 35.2526 179.872 35.2656 179.898 35.2656L180.68 35.6953L182.438 37.2969C182.49 37.362 182.568 37.5378 182.672 37.8242C182.789 38.0977 182.9 38.4036 183.004 38.7422C183.121 39.0677 183.219 39.3802 183.297 39.6797C183.388 39.9792 183.434 40.1745 183.434 40.2656C183.434 40.4479 183.382 40.5977 183.277 40.7148C183.173 40.819 183.049 40.9102 182.906 40.9883C182.763 41.0534 182.607 41.1055 182.438 41.1445C182.281 41.1706 182.145 41.1901 182.027 41.2031H181.949C181.819 41.2161 181.604 41.2292 181.305 41.2422C181.018 41.2552 180.712 41.2682 180.387 41.2812C180.074 41.2812 179.775 41.2878 179.488 41.3008C179.215 41.3008 179.026 41.3008 178.922 41.3008C178.779 41.3659 178.648 41.4049 178.531 41.418C178.427 41.431 178.316 41.4375 178.199 41.4375L176.812 41.3008C176.552 41.3008 176.279 41.3464 175.992 41.4375C175.719 41.5286 175.452 41.5742 175.191 41.5742C175.022 41.5742 174.853 41.5156 174.684 41.3984C174.527 41.2682 174.352 41.2031 174.156 41.2031C174.13 41.2031 174.059 41.2357 173.941 41.3008C173.837 41.3529 173.759 41.3789 173.707 41.3789L172.223 41.2812C172.014 41.2812 171.819 41.3203 171.637 41.3984C171.454 41.4766 171.246 41.6133 171.012 41.8086C170.973 42.1471 170.947 42.4466 170.934 42.707C170.921 42.9544 170.914 43.2344 170.914 43.5469C170.914 43.8203 170.927 44.0417 170.953 44.2109C170.992 44.3802 171.044 44.543 171.109 44.6992C171.174 44.8424 171.253 44.9922 171.344 45.1484C171.435 45.2917 171.539 45.474 171.656 45.6953L171.852 46.0664C172.19 46.8086 172.626 47.4076 173.16 47.8633C173.694 48.319 174.384 48.6771 175.23 48.9375C175.23 49.0026 175.322 49.0677 175.504 49.1328C175.699 49.1849 175.914 49.224 176.148 49.25C176.422 49.3021 176.734 49.3346 177.086 49.3477C177.516 49.3477 177.958 49.3216 178.414 49.2695C178.87 49.2174 179.312 49.1328 179.742 49.0156C180.172 48.8984 180.576 48.7422 180.953 48.5469C181.344 48.3516 181.676 48.1107 181.949 47.8242H182.262C182.418 47.8242 182.522 47.8503 182.574 47.9023C182.639 47.9414 182.704 48.0651 182.77 48.2734C182.73 48.651 182.672 48.9896 182.594 49.2891C182.529 49.5755 182.431 49.8359 182.301 50.0703C182.184 50.3047 182.027 50.526 181.832 50.7344C181.637 50.9297 181.383 51.1315 181.07 51.3398C180.966 51.418 180.868 51.4766 180.777 51.5156C180.686 51.5417 180.602 51.5677 180.523 51.5938C180.445 51.6198 180.361 51.6589 180.27 51.7109C180.191 51.763 180.1 51.8542 179.996 51.9844L177.906 53.0391L177.672 53L176.207 53.2344C175.113 53.2344 174.13 53.0781 173.258 52.7656C172.385 52.4531 171.604 52.0104 170.914 51.4375C170.237 50.8516 169.645 50.1549 169.137 49.3477C168.642 48.5404 168.219 47.6484 167.867 46.6719C167.75 46.3203 167.678 45.9622 167.652 45.5977C167.626 45.2201 167.542 44.8359 167.398 44.4453ZM171.246 39.1133C171.246 39.1784 171.253 39.276 171.266 39.4062C171.292 39.5365 171.324 39.6667 171.363 39.7969C171.402 39.9271 171.448 40.0443 171.5 40.1484C171.552 40.2526 171.604 40.3112 171.656 40.3242H172.262L174.859 39.9141L176.52 40.0508C176.806 40.0508 177.06 40.0247 177.281 39.9727C177.516 39.9206 177.77 39.862 178.043 39.7969C178.29 39.7578 178.499 39.7253 178.668 39.6992C178.85 39.6602 178.993 39.5951 179.098 39.5039C179.215 39.4128 179.299 39.2956 179.352 39.1523C179.404 38.9961 179.43 38.7812 179.43 38.5078C179.43 38.0521 179.306 37.6549 179.059 37.3164C178.811 36.9779 178.499 36.6979 178.121 36.4766C177.757 36.2422 177.353 36.0729 176.91 35.9688C176.48 35.8516 176.077 35.793 175.699 35.793C175.608 35.793 175.478 35.819 175.309 35.8711C175.139 35.9102 174.944 35.9688 174.723 36.0469C174.514 36.112 174.293 36.1901 174.059 36.2812C173.837 36.3594 173.629 36.4505 173.434 36.5547C173.251 36.6458 173.089 36.737 172.945 36.8281C172.802 36.9062 172.711 36.9779 172.672 37.043L172.262 37.9219C172.184 38.013 172.086 38.0977 171.969 38.1758C171.852 38.2539 171.734 38.3385 171.617 38.4297C171.513 38.5208 171.422 38.625 171.344 38.7422C171.279 38.8464 171.246 38.9701 171.246 39.1133ZM185.699 51.8086C185.699 51.7044 185.764 51.6328 185.895 51.5938C186.038 51.5417 186.142 51.4831 186.207 51.418C186.35 51.2617 186.513 51.151 186.695 51.0859C186.891 51.0208 187.027 50.9688 187.105 50.9297C187.21 50.8646 187.281 50.7865 187.32 50.6953C187.359 50.5911 187.451 50.513 187.594 50.4609L188.062 50.3047C188.141 50.3047 188.206 50.2461 188.258 50.1289C188.31 50.0117 188.342 49.9466 188.355 49.9336C188.342 49.8685 188.336 49.7578 188.336 49.6016C188.336 49.4453 188.336 49.2956 188.336 49.1523C188.336 48.9701 188.336 48.8073 188.336 48.6641C188.336 48.5078 188.342 48.3776 188.355 48.2734L188.473 47.6875V44.6797C188.473 44.6536 188.479 44.5951 188.492 44.5039C188.505 44.4128 188.518 44.3151 188.531 44.2109C188.544 44.1068 188.557 44.0091 188.57 43.918C188.583 43.8268 188.596 43.7682 188.609 43.7422V43.6055C188.596 43.5273 188.583 43.4102 188.57 43.2539C188.557 43.0846 188.544 42.9219 188.531 42.7656C188.518 42.5964 188.505 42.4466 188.492 42.3164C188.479 42.1862 188.473 42.1081 188.473 42.082C188.46 42.043 188.447 41.9779 188.434 41.8867C188.421 41.7956 188.408 41.6979 188.395 41.5938C188.382 41.4896 188.368 41.3919 188.355 41.3008C188.355 41.2096 188.355 41.1445 188.355 41.1055C188.316 40.9232 188.251 40.7474 188.16 40.5781C188.069 40.4089 187.965 40.2526 187.848 40.1094C187.73 39.9531 187.607 39.8034 187.477 39.6602C187.346 39.5039 187.223 39.3542 187.105 39.2109C187.092 39.2109 187.047 39.1654 186.969 39.0742C186.891 38.9701 186.852 38.9049 186.852 38.8789L185.699 37.8047L186.637 36.8477C186.663 36.8346 186.715 36.8086 186.793 36.7695C186.884 36.7305 186.975 36.6914 187.066 36.6523C187.171 36.6003 187.268 36.5547 187.359 36.5156C187.464 36.4766 187.542 36.4505 187.594 36.4375C187.62 36.4115 187.672 36.3919 187.75 36.3789C187.841 36.3529 187.932 36.3333 188.023 36.3203C188.128 36.3073 188.219 36.3008 188.297 36.3008C188.388 36.2878 188.447 36.2812 188.473 36.2812C188.72 36.2031 188.941 36.099 189.137 35.9688C189.345 35.8255 189.547 35.6888 189.742 35.5586C189.938 35.4154 190.133 35.2917 190.328 35.1875C190.536 35.0833 190.771 35.0312 191.031 35.0312H191.344C191.357 35.0443 191.428 35.1159 191.559 35.2461C191.689 35.3633 191.786 35.4479 191.852 35.5C191.943 35.6432 191.988 35.8255 191.988 36.0469C191.988 36.2552 191.995 36.4635 192.008 36.6719C192.021 36.8672 192.066 37.0365 192.145 37.1797C192.223 37.3229 192.392 37.3945 192.652 37.3945C192.691 37.3945 192.73 37.3945 192.77 37.3945C192.822 37.3945 192.848 37.3815 192.848 37.3555C192.9 37.3424 192.971 37.3164 193.062 37.2773C193.154 37.2253 193.245 37.1667 193.336 37.1016C193.44 37.0365 193.531 36.9714 193.609 36.9062C193.701 36.8411 193.766 36.7891 193.805 36.75L194.605 36.1445C194.632 36.1185 194.716 36.0599 194.859 35.9688C195.003 35.8646 195.1 35.7865 195.152 35.7344C195.165 35.7344 195.217 35.7344 195.309 35.7344C195.4 35.7214 195.491 35.7148 195.582 35.7148C195.686 35.7018 195.784 35.6888 195.875 35.6758C195.966 35.6628 196.031 35.6497 196.07 35.6367C196.083 35.6367 196.122 35.6237 196.188 35.5977C196.266 35.5716 196.344 35.5456 196.422 35.5195C196.513 35.4935 196.591 35.4674 196.656 35.4414C196.721 35.4154 196.76 35.4023 196.773 35.4023H196.988C197.288 35.4023 197.529 35.4935 197.711 35.6758C197.906 35.8581 198.082 36.0599 198.238 36.2812C198.329 36.3984 198.382 36.5677 198.395 36.7891C198.421 36.9974 198.466 37.1536 198.531 37.2578C198.531 37.2969 198.551 37.3359 198.59 37.375L198.668 37.4531C198.668 38.0781 198.577 38.638 198.395 39.1328C198.225 39.6146 197.932 40.0052 197.516 40.3047C197.398 40.3307 197.262 40.3568 197.105 40.3828C196.949 40.3958 196.819 40.4023 196.715 40.4023C196.441 40.4023 196.24 40.3893 196.109 40.3633C195.979 40.3242 195.882 40.2721 195.816 40.207C195.751 40.1419 195.693 40.0573 195.641 39.9531C195.602 39.849 195.53 39.7253 195.426 39.582C195.335 39.4648 195.224 39.3737 195.094 39.3086C194.977 39.2305 194.859 39.1784 194.742 39.1523C194.625 39.1133 194.514 39.0872 194.41 39.0742C194.319 39.0612 194.26 39.0547 194.234 39.0547L193.395 38.918L192.691 39.1133L192.457 39.4258C192.392 39.4388 192.301 39.5039 192.184 39.6211C192.066 39.7253 191.949 39.849 191.832 39.9922C191.728 40.1224 191.637 40.2656 191.559 40.4219C191.48 40.5651 191.441 40.6823 191.441 40.7734L191.344 42.1797L191.441 42.7266V43.7422C191.441 43.7682 191.448 43.8464 191.461 43.9766C191.487 44.0938 191.513 44.1849 191.539 44.25L191.402 46.0078L191.539 46.6719C191.539 46.763 191.513 46.8542 191.461 46.9453C191.422 47.0365 191.402 47.1536 191.402 47.2969L191.539 47.9609L191.402 48.6836C191.402 48.6966 191.402 48.7161 191.402 48.7422C191.402 48.7682 191.415 48.7812 191.441 48.7812C191.454 48.8594 191.493 48.9701 191.559 49.1133C191.637 49.2565 191.715 49.4062 191.793 49.5625C191.884 49.7188 191.962 49.8685 192.027 50.0117C192.105 50.1419 192.158 50.2396 192.184 50.3047C192.184 50.3177 192.197 50.3438 192.223 50.3828C192.249 50.4219 192.281 50.4414 192.32 50.4414C192.438 50.5065 192.548 50.5911 192.652 50.6953C192.77 50.7995 192.906 50.8776 193.062 50.9297C193.154 50.9688 193.271 51.0078 193.414 51.0469C193.557 51.0729 193.707 51.1055 193.863 51.1445C194.033 51.1836 194.195 51.2292 194.352 51.2812C194.521 51.3333 194.677 51.3984 194.82 51.4766C194.898 51.5807 194.97 51.7044 195.035 51.8477C195.113 51.9909 195.152 52.1471 195.152 52.3164C195.152 52.4596 195.126 52.5638 195.074 52.6289C195.035 52.694 194.97 52.7591 194.879 52.8242C194.801 52.8763 194.671 52.9023 194.488 52.9023L193.863 52.9609C193.642 52.987 193.44 53 193.258 53C193.089 53 192.945 53 192.828 53C192.724 53 192.607 52.987 192.477 52.9609C192.359 52.9219 192.229 52.9023 192.086 52.9023C191.721 52.9023 191.376 52.9479 191.051 53.0391C190.725 53.1432 190.393 53.1953 190.055 53.1953L189.176 52.9023L187.926 53.1953H187.594L187.32 53C187.294 53 187.223 52.9935 187.105 52.9805C186.988 52.9544 186.819 52.9284 186.598 52.9023C186.546 52.9023 186.493 52.8763 186.441 52.8242C186.402 52.8112 186.337 52.7917 186.246 52.7656C186.168 52.7396 186.038 52.681 185.855 52.5898C185.751 52.4466 185.699 52.3099 185.699 52.1797V52.1211V51.8086ZM200.914 49.5625C200.914 49.4062 200.927 49.1784 200.953 48.8789C200.979 48.5664 201.025 48.2604 201.09 47.9609C201.168 47.6615 201.272 47.401 201.402 47.1797C201.533 46.9583 201.708 46.8477 201.93 46.8477C201.969 46.8477 202.001 46.9193 202.027 47.0625C202.053 47.2057 202.079 47.375 202.105 47.5703C202.145 47.7526 202.19 47.9284 202.242 48.0977C202.294 48.2669 202.359 48.3711 202.438 48.4102C202.607 48.4883 202.717 48.5469 202.77 48.5859C202.822 48.625 202.867 48.7357 202.906 48.918L203.551 49.8555C203.616 50.0117 203.733 50.1224 203.902 50.1875C204.072 50.2526 204.202 50.3438 204.293 50.4609C204.436 50.6693 204.638 50.8255 204.898 50.9297C205.159 51.0208 205.452 51.0664 205.777 51.0664L206.344 50.9688C206.357 50.9557 206.415 50.9492 206.52 50.9492C206.637 50.9362 206.754 50.9232 206.871 50.9102C207.001 50.8971 207.118 50.8906 207.223 50.8906C207.34 50.8776 207.411 50.8711 207.438 50.8711C207.503 50.8451 207.594 50.819 207.711 50.793C207.828 50.7539 207.945 50.7148 208.062 50.6758C208.18 50.6367 208.284 50.5977 208.375 50.5586C208.466 50.5195 208.525 50.487 208.551 50.4609C208.564 50.4479 208.622 50.3958 208.727 50.3047C208.831 50.2005 208.948 50.0833 209.078 49.9531C209.208 49.8229 209.339 49.6927 209.469 49.5625C209.612 49.4193 209.723 49.3021 209.801 49.2109C209.905 49.1068 209.97 49.0286 209.996 48.9766C210.022 48.9115 210.035 48.8138 210.035 48.6836V48.5078C210.035 48 209.944 47.5768 209.762 47.2383C209.579 46.8997 209.299 46.5677 208.922 46.2422C208.609 45.9557 208.29 45.7344 207.965 45.5781C207.639 45.4089 207.301 45.2786 206.949 45.1875C206.611 45.0964 206.253 45.0247 205.875 44.9727C205.497 44.9076 205.107 44.8359 204.703 44.7578C204.56 44.7448 204.43 44.6992 204.312 44.6211C204.208 44.543 204.104 44.4583 204 44.3672C203.909 44.263 203.818 44.1589 203.727 44.0547C203.635 43.9505 203.544 43.8594 203.453 43.7812L202.262 43.0586C201.988 42.8633 201.78 42.6354 201.637 42.375C201.507 42.1016 201.402 41.8151 201.324 41.5156C201.259 41.2161 201.207 40.9102 201.168 40.5977C201.129 40.2852 201.077 39.9792 201.012 39.6797L200.738 39.0547C200.738 38.638 200.797 38.2799 200.914 37.9805C201.031 37.681 201.174 37.3815 201.344 37.082C201.565 37.0299 201.734 36.9128 201.852 36.7305C201.969 36.5482 202.105 36.3984 202.262 36.2812C202.275 36.2422 202.32 36.1901 202.398 36.125C202.477 36.0469 202.555 35.9688 202.633 35.8906C202.711 35.7995 202.783 35.7148 202.848 35.6367C202.926 35.5586 202.965 35.5 202.965 35.4609C203.03 35.4349 203.108 35.3763 203.199 35.2852C203.29 35.194 203.336 35.1159 203.336 35.0508C203.375 35.0508 203.44 35.0312 203.531 34.9922C203.622 34.9531 203.72 34.9076 203.824 34.8555C203.928 34.8034 204.026 34.7578 204.117 34.7188C204.221 34.6667 204.299 34.6341 204.352 34.6211C204.378 34.6211 204.43 34.6081 204.508 34.582C204.599 34.556 204.664 34.5365 204.703 34.5234C204.716 34.5234 204.762 34.4974 204.84 34.4453C204.931 34.3802 204.996 34.3477 205.035 34.3477C205.178 34.3477 205.315 34.3802 205.445 34.4453C205.589 34.4974 205.732 34.5234 205.875 34.5234L207.125 34.3477L208.688 34.582L209.801 35.0508C209.944 35.0508 210.107 34.9987 210.289 34.8945C210.471 34.7773 210.634 34.7188 210.777 34.7188C210.816 34.7188 210.849 34.7318 210.875 34.7578C210.914 34.7578 210.947 34.7708 210.973 34.7969C211.012 34.8099 211.051 34.8294 211.09 34.8555C211.09 34.8815 211.103 34.9336 211.129 35.0117C211.142 35.0508 211.161 35.0898 211.188 35.1289C211.188 35.3372 211.135 35.513 211.031 35.6562C210.927 35.7865 210.875 35.9362 210.875 36.1055L210.836 36.6133C210.836 36.7174 210.829 36.8216 210.816 36.9258C210.816 37.0169 210.784 37.1016 210.719 37.1797C210.68 37.362 210.66 37.6029 210.66 37.9023C210.673 38.2018 210.66 38.4948 210.621 38.7812C210.582 39.0547 210.504 39.2956 210.387 39.5039C210.283 39.7122 210.107 39.8164 209.859 39.8164L209.664 39.4844C209.625 39.4583 209.599 39.3997 209.586 39.3086C209.573 39.2044 209.534 39.1393 209.469 39.1133C209.404 39.0612 209.332 38.9701 209.254 38.8398C209.176 38.7096 209.098 38.5664 209.02 38.4102C208.954 38.2409 208.889 38.0781 208.824 37.9219C208.772 37.7656 208.727 37.6419 208.688 37.5508L208.414 37.3164C208.154 37.1211 207.919 36.9779 207.711 36.8867C207.516 36.7956 207.301 36.6589 207.066 36.4766C207.014 36.4245 206.923 36.3984 206.793 36.3984C206.676 36.3854 206.507 36.3789 206.285 36.3789C206.077 36.3789 205.79 36.4245 205.426 36.5156C205.074 36.5938 204.723 36.7109 204.371 36.8672C204.033 37.0234 203.733 37.2122 203.473 37.4336C203.225 37.6419 203.102 37.8763 203.102 38.1367L203.199 38.5469C203.199 38.612 203.167 38.7292 203.102 38.8984C203.049 39.0677 203.004 39.1979 202.965 39.2891C202.965 39.4323 202.984 39.5365 203.023 39.6016C203.062 39.6667 203.115 39.7188 203.18 39.7578C203.258 39.7969 203.336 39.8359 203.414 39.875C203.505 39.9141 203.603 39.9857 203.707 40.0898C203.772 40.1419 203.811 40.2135 203.824 40.3047C203.85 40.3828 203.87 40.4674 203.883 40.5586C203.896 40.6497 203.909 40.7409 203.922 40.832C203.948 40.9232 204 41.0013 204.078 41.0664C204.221 41.1836 204.43 41.2682 204.703 41.3203C204.99 41.3724 205.237 41.4115 205.445 41.4375H206.52C206.78 41.4635 207.021 41.5612 207.242 41.7305C207.477 41.8997 207.652 41.9974 207.77 42.0234H208.922L209.527 42.4336C209.814 42.6159 210.048 42.7982 210.23 42.9805C210.426 43.1497 210.589 43.332 210.719 43.5273C210.862 43.7227 210.986 43.944 211.09 44.1914C211.194 44.4258 211.305 44.7057 211.422 45.0312C211.422 45.0312 211.435 45.0573 211.461 45.1094C211.487 45.1615 211.513 45.2201 211.539 45.2852C211.578 45.3372 211.611 45.3893 211.637 45.4414C211.663 45.4935 211.682 45.526 211.695 45.5391L211.52 46.1445C211.52 46.1576 211.533 46.2096 211.559 46.3008C211.585 46.3789 211.617 46.4701 211.656 46.5742C211.695 46.6654 211.728 46.763 211.754 46.8672C211.78 46.9583 211.793 47.0234 211.793 47.0625V47.7266C211.793 47.9349 211.773 48.1758 211.734 48.4492C211.695 48.7227 211.637 49.0026 211.559 49.2891C211.48 49.5625 211.383 49.8294 211.266 50.0898C211.148 50.3503 211.018 50.5651 210.875 50.7344C210.862 50.7604 210.803 50.8255 210.699 50.9297C210.595 51.0339 210.478 51.1576 210.348 51.3008C210.23 51.431 210.107 51.5612 209.977 51.6914C209.859 51.8086 209.768 51.8932 209.703 51.9453C209.69 51.9583 209.664 51.9779 209.625 52.0039C209.586 52.0299 209.54 52.056 209.488 52.082C209.436 52.1211 209.371 52.1536 209.293 52.1797L209.059 52.4922L208.551 52.5898C208.538 52.5898 208.499 52.5964 208.434 52.6094C208.368 52.6094 208.297 52.6159 208.219 52.6289C208.154 52.6419 208.089 52.6549 208.023 52.668C207.958 52.681 207.919 52.6875 207.906 52.6875C207.789 52.7266 207.633 52.8047 207.438 52.9219C207.255 53.0391 207.099 53.0977 206.969 53.0977C206.656 53.0846 206.428 53.0716 206.285 53.0586C206.155 53.0456 206.005 53.026 205.836 53H205.172C205.133 52.987 205.074 52.974 204.996 52.9609C204.918 52.9349 204.833 52.9154 204.742 52.9023C204.651 52.8763 204.566 52.8568 204.488 52.8438C204.41 52.8177 204.365 52.8047 204.352 52.8047C204.339 52.7917 204.293 52.7721 204.215 52.7461C204.15 52.707 204.072 52.668 203.98 52.6289C203.902 52.5898 203.831 52.5573 203.766 52.5312C203.701 52.5052 203.661 52.4922 203.648 52.4922C203.596 52.4661 203.499 52.4466 203.355 52.4336C203.212 52.4076 203.128 52.3945 203.102 52.3945L202.77 52.2188C202.613 52.1667 202.464 52.1146 202.32 52.0625C202.177 52.0104 202.027 51.9453 201.871 51.8672C201.728 51.776 201.572 51.6654 201.402 51.5352C201.233 51.3919 201.044 51.2161 200.836 51.0078C200.823 50.9557 200.81 50.8906 200.797 50.8125C200.784 50.7344 200.777 50.6628 200.777 50.5977C200.777 50.3893 200.797 50.194 200.836 50.0117C200.888 49.8164 200.914 49.6667 200.914 49.5625ZM215.406 53C215.25 53 215.126 53.026 215.035 53.0781C214.957 53.1432 214.872 53.1758 214.781 53.1758C214.729 53.1758 214.664 53.1497 214.586 53.0977C214.521 53.0456 214.417 52.9805 214.273 52.9023C214.247 52.8893 214.228 52.8568 214.215 52.8047C214.215 52.7396 214.202 52.668 214.176 52.5898C214.15 52.5117 214.13 52.4141 214.117 52.2969C214.117 52.2839 214.13 52.2513 214.156 52.1992C214.195 52.1341 214.234 52.069 214.273 52.0039C214.312 51.9258 214.352 51.8542 214.391 51.7891C214.43 51.724 214.462 51.6784 214.488 51.6523L214.859 51.4375H215.289C215.589 51.4375 215.855 51.418 216.09 51.3789C216.337 51.3268 216.533 51.1771 216.676 50.9297C216.728 50.487 216.767 50.0638 216.793 49.6602C216.819 49.2565 216.884 48.8594 216.988 48.4688L217.223 47.5508V45.7344L217.32 43.9766V42.8242C217.32 42.7982 217.307 42.7331 217.281 42.6289C217.255 42.5117 217.229 42.388 217.203 42.2578C217.177 42.1146 217.151 41.9844 217.125 41.8672C217.099 41.737 217.086 41.6393 217.086 41.5742V39.7188C217.034 39.5755 216.949 39.3997 216.832 39.1914C216.715 38.9831 216.598 38.8333 216.48 38.7422L215.875 38.5469C215.654 38.3906 215.452 38.2214 215.27 38.0391C215.1 37.8568 214.964 37.6289 214.859 37.3555C214.859 37.2122 214.892 37.1016 214.957 37.0234C215.022 36.9453 215.107 36.8867 215.211 36.8477C215.315 36.8086 215.426 36.776 215.543 36.75C215.66 36.724 215.771 36.6979 215.875 36.6719L217.32 35.9297C217.438 35.8776 217.535 35.8385 217.613 35.8125C217.704 35.7734 217.789 35.7344 217.867 35.6953C217.945 35.6562 218.017 35.6107 218.082 35.5586C218.16 35.5065 218.245 35.4284 218.336 35.3242L218.902 35.2852C218.967 35.2852 219.065 35.2917 219.195 35.3047C219.339 35.3177 219.423 35.3242 219.449 35.3242C219.488 35.3242 219.553 35.3307 219.645 35.3438C219.736 35.3568 219.833 35.3763 219.938 35.4023C220.042 35.4284 220.139 35.4544 220.23 35.4805C220.322 35.5065 220.387 35.526 220.426 35.5391C220.543 35.5911 220.615 35.7018 220.641 35.8711C220.68 36.0273 220.699 36.1706 220.699 36.3008V36.9258L220.562 37.3945C220.497 38.2409 220.465 39.0742 220.465 39.8945C220.465 40.7148 220.452 41.5612 220.426 42.4336L220.328 43.1367C220.315 43.1497 220.302 43.1953 220.289 43.2734C220.289 43.3516 220.289 43.4427 220.289 43.5469C220.289 43.651 220.289 43.7552 220.289 43.8594C220.289 43.9505 220.289 44.0221 220.289 44.0742C220.289 44.1654 220.289 44.2695 220.289 44.3867C220.289 44.5039 220.289 44.6146 220.289 44.7188C220.289 44.8229 220.289 44.9141 220.289 44.9922C220.302 45.0573 220.315 45.0898 220.328 45.0898C220.328 45.1289 220.341 45.2201 220.367 45.3633C220.393 45.4935 220.413 45.5716 220.426 45.5977V46.0078C220.426 46.0469 220.419 46.151 220.406 46.3203C220.393 46.4896 220.38 46.6849 220.367 46.9062C220.354 47.1146 220.341 47.3229 220.328 47.5312C220.328 47.7266 220.328 47.8698 220.328 47.9609C220.328 48.0781 220.335 48.2669 220.348 48.5273C220.374 48.7747 220.4 49.0417 220.426 49.3281C220.465 49.6146 220.497 49.888 220.523 50.1484C220.549 50.3958 220.562 50.5716 220.562 50.6758C220.562 50.819 220.634 50.9362 220.777 51.0273C220.934 51.1055 221.057 51.1576 221.148 51.1836C221.188 51.1836 221.266 51.1901 221.383 51.2031C221.513 51.2161 221.65 51.2292 221.793 51.2422C221.936 51.2552 222.066 51.2682 222.184 51.2812C222.314 51.2812 222.405 51.2812 222.457 51.2812C222.548 51.3854 222.62 51.4961 222.672 51.6133C222.737 51.7305 222.77 51.8802 222.77 52.0625C222.77 52.2448 222.75 52.4206 222.711 52.5898C222.685 52.7591 222.613 52.8763 222.496 52.9414C222.34 53.0716 222.164 53.1432 221.969 53.1562C221.786 53.1823 221.591 53.1953 221.383 53.1953H221.031L220.562 53H218.16C218.147 53 218.062 52.987 217.906 52.9609C217.75 52.9219 217.646 52.9023 217.594 52.9023H217.047L215.406 53ZM215.973 27.1211L216.578 26.5156L217.223 26.0078L217.418 25.5977C217.574 25.4805 217.75 25.4154 217.945 25.4023C218.141 25.3763 218.316 25.3633 218.473 25.3633H218.668C218.681 25.3763 218.72 25.3958 218.785 25.4219C218.85 25.4479 218.915 25.474 218.98 25.5C219.046 25.526 219.104 25.5521 219.156 25.5781C219.221 25.5911 219.267 25.5977 219.293 25.5977C219.345 25.6237 219.423 25.6497 219.527 25.6758C219.645 25.6888 219.762 25.7083 219.879 25.7344C219.996 25.7474 220.107 25.7604 220.211 25.7734C220.315 25.7734 220.387 25.7734 220.426 25.7734C220.478 25.7865 220.536 25.8646 220.602 26.0078C220.667 26.151 220.719 26.3138 220.758 26.4961C220.81 26.6654 220.849 26.8346 220.875 27.0039C220.914 27.1602 220.934 27.2643 220.934 27.3164C220.934 27.6419 220.895 27.9479 220.816 28.2344C220.751 28.5078 220.589 28.7552 220.328 28.9766C220.315 28.9896 220.276 29.0091 220.211 29.0352C220.159 29.0482 220.1 29.0677 220.035 29.0938C219.97 29.1068 219.905 29.1263 219.84 29.1523C219.788 29.1654 219.762 29.1719 219.762 29.1719C219.749 29.1979 219.716 29.2435 219.664 29.3086C219.612 29.3607 219.553 29.4193 219.488 29.4844C219.423 29.5365 219.358 29.5885 219.293 29.6406C219.228 29.6797 219.189 29.7057 219.176 29.7188C219.098 29.8099 218.98 29.862 218.824 29.875C218.681 29.888 218.544 29.8945 218.414 29.8945H217.652C217.509 29.8945 217.385 29.888 217.281 29.875C217.177 29.849 217.034 29.7643 216.852 29.6211C216.63 29.2956 216.422 28.9961 216.227 28.7227C216.031 28.4492 215.934 28.1042 215.934 27.6875L215.973 27.1211ZM227.066 45.5L226.949 43.5469L227.066 41.5156V40.9297C227.079 40.8646 227.099 40.7865 227.125 40.6953C227.151 40.6042 227.164 40.526 227.164 40.4609C227.164 40.0833 227.105 39.6992 226.988 39.3086C226.871 38.9049 226.78 38.5143 226.715 38.1367C226.585 38.0456 226.396 37.9805 226.148 37.9414C225.914 37.9023 225.68 37.8568 225.445 37.8047C225.211 37.7396 225.003 37.6484 224.82 37.5312C224.651 37.4141 224.566 37.2318 224.566 36.9844C224.566 36.7109 224.658 36.5091 224.84 36.3789C225.022 36.2357 225.237 36.1185 225.484 36.0273C225.745 35.9232 226.005 35.832 226.266 35.7539C226.539 35.6758 226.76 35.5586 226.93 35.4023C227.099 35.2591 227.288 35.0833 227.496 34.875C227.704 34.6667 227.854 34.5039 227.945 34.3867C228.049 34.1784 228.186 33.918 228.355 33.6055C228.538 33.293 228.733 32.9935 228.941 32.707C229.15 32.4076 229.371 32.1536 229.605 31.9453C229.84 31.724 230.074 31.6133 230.309 31.6133C230.465 31.6133 230.589 31.6589 230.68 31.75C230.784 31.8281 230.862 31.9323 230.914 32.0625C230.979 32.1797 231.025 32.3099 231.051 32.4531C231.077 32.5964 231.096 32.7331 231.109 32.8633V35.1289L231.207 35.2656H232.125C232.451 35.2656 232.75 35.2461 233.023 35.207C233.297 35.1549 233.551 35.1029 233.785 35.0508C234.033 34.9857 234.267 34.9336 234.488 34.8945C234.723 34.8424 234.97 34.8164 235.23 34.8164C235.595 34.8164 235.901 34.9531 236.148 35.2266C236.396 35.5 236.52 35.8255 236.52 36.2031C236.52 36.5026 236.467 36.75 236.363 36.9453C236.272 37.1406 236.135 37.2969 235.953 37.4141C235.771 37.5312 235.556 37.6159 235.309 37.668C235.061 37.707 234.788 37.7266 234.488 37.7266L233.199 37.6289L232.223 37.7266L231.285 37.6289C231.103 37.6289 230.934 37.7135 230.777 37.8828C230.634 38.0391 230.562 38.1888 230.562 38.332L230.738 39.7969C230.738 39.9792 230.712 40.1549 230.66 40.3242C230.608 40.4935 230.549 40.6693 230.484 40.8516C230.419 41.0208 230.361 41.1966 230.309 41.3789C230.257 41.5612 230.23 41.75 230.23 41.9453V42.2969L230.406 44.5625C230.367 44.6406 230.341 44.7188 230.328 44.7969C230.328 44.875 230.328 44.9727 230.328 45.0898C230.328 45.181 230.341 45.2656 230.367 45.3438C230.393 45.4219 230.406 45.4935 230.406 45.5586C230.445 45.9362 230.465 46.3073 230.465 46.6719C230.465 46.9974 230.452 47.3099 230.426 47.6094C230.4 47.9089 230.361 48.2083 230.309 48.5078C230.322 48.5208 230.348 48.5599 230.387 48.625C230.426 48.6771 230.465 48.7422 230.504 48.8203C230.556 48.8854 230.602 48.957 230.641 49.0352C230.68 49.1003 230.712 49.1393 230.738 49.1523C230.842 49.3086 230.96 49.4258 231.09 49.5039C231.22 49.582 231.35 49.6536 231.48 49.7188C231.624 49.7708 231.767 49.8294 231.91 49.8945C232.066 49.9596 232.216 50.0573 232.359 50.1875H233.102C233.401 50.1875 233.688 50.1549 233.961 50.0898C234.234 50.0247 234.495 49.9596 234.742 49.8945C235.003 49.8164 235.25 49.7448 235.484 49.6797C235.732 49.6146 235.986 49.582 236.246 49.582C236.402 49.582 236.52 49.6602 236.598 49.8164C236.676 49.9727 236.715 50.1224 236.715 50.2656C236.715 50.3438 236.708 50.4089 236.695 50.4609C236.695 50.5 236.682 50.5391 236.656 50.5781C236.63 50.6172 236.591 50.6628 236.539 50.7148C236.5 50.7669 236.448 50.8385 236.383 50.9297L236.109 51.3203C236.07 51.3464 236.005 51.4115 235.914 51.5156C235.836 51.6198 235.745 51.737 235.641 51.8672C235.536 51.9844 235.432 52.1016 235.328 52.2188C235.224 52.3229 235.146 52.401 235.094 52.4531C234.964 52.5964 234.768 52.7331 234.508 52.8633C234.247 52.9935 233.974 53.1042 233.688 53.1953C233.401 53.2995 233.121 53.3776 232.848 53.4297C232.587 53.4818 232.379 53.5078 232.223 53.5078L229.723 53C229.501 52.9349 229.254 52.8372 228.98 52.707C228.707 52.5768 228.44 52.4271 228.18 52.2578C227.932 52.0755 227.711 51.8737 227.516 51.6523C227.333 51.431 227.216 51.1901 227.164 50.9297V49.582C227.099 49.1393 227.021 48.7227 226.93 48.332C226.852 47.9284 226.812 47.5117 226.812 47.082L227.066 45.5ZM240.035 62.2188C240.035 62.1016 240.035 61.9974 240.035 61.9062C240.048 61.8151 240.087 61.6979 240.152 61.5547C240.217 61.2552 240.354 61.0078 240.562 60.8125C240.784 60.6172 241.116 60.4544 241.559 60.3242C241.598 60.3112 241.663 60.2917 241.754 60.2656C241.845 60.2526 241.936 60.2396 242.027 60.2266C242.118 60.2135 242.197 60.2005 242.262 60.1875C242.34 60.1875 242.385 60.1875 242.398 60.1875L243.121 60.3242L243.551 60.1875C243.59 60.1875 243.648 60.181 243.727 60.168C243.805 60.168 243.915 60.168 244.059 60.168C244.293 60.168 244.449 60.1615 244.527 60.1484C244.618 60.1354 244.69 60.0964 244.742 60.0312C244.846 59.875 244.931 59.7383 244.996 59.6211C245.061 59.5039 245.113 59.3867 245.152 59.2695C245.204 59.1654 245.243 59.0482 245.27 58.918C245.309 58.8008 245.348 58.651 245.387 58.4688C245.387 58.4557 245.393 58.4102 245.406 58.332C245.419 58.2669 245.432 58.1888 245.445 58.0977C245.458 58.0065 245.471 57.9219 245.484 57.8438C245.497 57.7656 245.51 57.707 245.523 57.668C245.523 57.6159 245.556 57.5182 245.621 57.375C245.686 57.2318 245.758 57.082 245.836 56.9258C245.914 56.7695 245.986 56.6198 246.051 56.4766C246.129 56.3464 246.188 56.2487 246.227 56.1836L246.09 55.3633C246.233 55.1289 246.344 54.9141 246.422 54.7188C246.5 54.5234 246.539 54.2891 246.539 54.0156C246.539 53.9766 246.533 53.9245 246.52 53.8594C246.507 53.8073 246.5 53.7682 246.5 53.7422C246.5 53.638 246.493 53.5078 246.48 53.3516C246.48 53.2083 246.474 53.0716 246.461 52.9414C246.448 52.7982 246.435 52.6745 246.422 52.5703C246.409 52.4661 246.402 52.4076 246.402 52.3945C246.402 52.3555 246.376 52.2773 246.324 52.1602C246.272 52.0299 246.214 51.8932 246.148 51.75C246.096 51.6068 246.038 51.4701 245.973 51.3398C245.921 51.2096 245.895 51.1185 245.895 51.0664C245.882 51.0404 245.855 50.9622 245.816 50.832C245.777 50.7018 245.732 50.5651 245.68 50.4219C245.641 50.2656 245.602 50.1224 245.562 49.9922C245.536 49.862 245.523 49.7839 245.523 49.7578L244.898 48.7031C244.898 48.6901 244.892 48.638 244.879 48.5469C244.866 48.4557 244.853 48.3581 244.84 48.2539C244.827 48.1497 244.807 48.0521 244.781 47.9609C244.768 47.8568 244.755 47.7917 244.742 47.7656C244.742 47.6484 244.729 47.5052 244.703 47.3359C244.677 47.1536 244.658 47.0625 244.645 47.0625C244.632 47.0234 244.592 46.9714 244.527 46.9062C244.475 46.8411 244.41 46.776 244.332 46.7109C244.267 46.6458 244.202 46.5872 244.137 46.5352C244.072 46.4831 244.039 46.4505 244.039 46.4375L243.766 45.7344L243.121 44.8164L242.398 42.9609C242.385 42.9349 242.346 42.8633 242.281 42.7461C242.229 42.6159 242.203 42.5443 242.203 42.5312C242.177 42.5052 242.138 42.4727 242.086 42.4336C242.034 42.3815 242.008 42.3424 242.008 42.3164C241.995 42.3034 241.982 42.2448 241.969 42.1406C241.956 42.0365 241.943 41.9258 241.93 41.8086C241.93 41.6914 241.923 41.5872 241.91 41.4961C241.91 41.3919 241.91 41.3268 241.91 41.3008C241.858 41.0924 241.78 40.8711 241.676 40.6367C241.572 40.3893 241.461 40.1484 241.344 39.9141C241.227 39.6667 241.103 39.4258 240.973 39.1914C240.855 38.957 240.751 38.7422 240.66 38.5469C240.66 38.5208 240.647 38.4557 240.621 38.3516C240.595 38.2344 240.569 38.1628 240.543 38.1367C240.543 38.0977 240.51 38.0456 240.445 37.9805C240.393 37.9023 240.335 37.8503 240.27 37.8242C239.892 37.5247 239.488 37.2904 239.059 37.1211C238.642 36.9518 238.206 36.7565 237.75 36.5352L237.574 36.2812C237.522 36.1771 237.444 36.099 237.34 36.0469C237.223 35.9948 237.164 35.9232 237.164 35.832C237.164 35.3763 237.249 35.0833 237.418 34.9531C237.574 34.8229 237.776 34.7578 238.023 34.7578C238.219 34.7578 238.408 34.7904 238.59 34.8555C238.785 34.9206 238.987 35.0117 239.195 35.1289C239.234 35.1289 239.312 35.1224 239.43 35.1094C239.547 35.0964 239.684 35.0898 239.84 35.0898C239.983 35.0898 240.12 35.0964 240.25 35.1094C240.393 35.1224 240.491 35.1289 240.543 35.1289L241.051 35.3242H241.559C241.572 35.3242 241.624 35.3177 241.715 35.3047C241.819 35.2786 241.923 35.2591 242.027 35.2461C242.145 35.2201 242.249 35.2005 242.34 35.1875C242.431 35.1615 242.49 35.1419 242.516 35.1289C242.594 35.0898 242.698 35.0573 242.828 35.0312C242.971 34.9922 243.108 34.9596 243.238 34.9336C243.368 34.9076 243.479 34.888 243.57 34.875C243.674 34.862 243.74 34.8555 243.766 34.8555H244.645L245.172 34.7578C245.289 34.7578 245.426 34.7839 245.582 34.8359C245.751 34.875 245.901 34.9336 246.031 35.0117C246.174 35.0898 246.292 35.181 246.383 35.2852C246.487 35.3763 246.539 35.4674 246.539 35.5586C246.539 35.6628 246.526 35.819 246.5 36.0273C246.474 36.2227 246.415 36.3724 246.324 36.4766C246.116 36.6979 245.895 36.8542 245.66 36.9453C245.439 37.0365 245.276 37.0951 245.172 37.1211L244.84 37.2188C244.749 37.2578 244.645 37.2708 244.527 37.2578C244.423 37.2318 244.326 37.2643 244.234 37.3555C244.247 37.4596 244.273 37.5898 244.312 37.7461C244.352 37.8893 244.397 38.0326 244.449 38.1758C244.501 38.319 244.547 38.4492 244.586 38.5664C244.625 38.6706 244.645 38.7292 244.645 38.7422C244.658 38.8724 244.69 38.9896 244.742 39.0938C244.807 39.1979 244.872 39.3021 244.938 39.4062C245.003 39.5104 245.068 39.6146 245.133 39.7188C245.198 39.8229 245.25 39.9336 245.289 40.0508L245.523 41.3008C245.549 41.4831 245.615 41.6589 245.719 41.8281C245.823 41.9844 245.934 42.1406 246.051 42.2969C246.168 42.4401 246.285 42.5964 246.402 42.7656C246.52 42.9219 246.598 43.0911 246.637 43.2734C246.637 43.2865 246.637 43.3451 246.637 43.4492C246.65 43.5534 246.656 43.6641 246.656 43.7812C246.669 43.8984 246.682 44.0091 246.695 44.1133C246.708 44.2174 246.721 44.276 246.734 44.2891C246.734 44.3021 246.773 44.3672 246.852 44.4844C246.93 44.6016 246.982 44.6667 247.008 44.6797C247.021 44.7057 247.053 44.7773 247.105 44.8945C247.158 45.0117 247.203 45.0898 247.242 45.1289L247.535 45.7344C247.561 45.8255 247.607 45.9427 247.672 46.0859C247.737 46.2161 247.796 46.2812 247.848 46.2812C247.939 46.4245 248.036 46.5286 248.141 46.5938C248.258 46.6458 248.362 46.6719 248.453 46.6719C248.518 46.6719 248.609 46.6458 248.727 46.5938C248.844 46.5286 248.935 46.4245 249 46.2812C249.039 46.2292 249.085 46.1771 249.137 46.125C249.241 46.0208 249.319 45.9492 249.371 45.9102L249.41 45.793C249.423 45.7669 249.436 45.7409 249.449 45.7148C249.462 45.6888 249.469 45.6628 249.469 45.6367C249.625 45.2461 249.775 44.849 249.918 44.4453C250.061 44.0417 250.204 43.6185 250.348 43.1758C250.348 43.1367 250.361 43.0521 250.387 42.9219C250.413 42.7786 250.458 42.681 250.523 42.6289C250.523 42.6159 250.523 42.5768 250.523 42.5117C250.536 42.4466 250.543 42.375 250.543 42.2969C250.556 42.2057 250.569 42.1276 250.582 42.0625C250.595 41.9844 250.608 41.9388 250.621 41.9258L250.914 41.1055C250.927 41.0924 250.94 41.0534 250.953 40.9883C250.966 40.9232 250.979 40.8581 250.992 40.793C251.005 40.7148 251.012 40.6497 251.012 40.5977C251.025 40.5326 251.031 40.487 251.031 40.4609C251.07 40.3307 251.129 40.2005 251.207 40.0703C251.298 39.9401 251.383 39.8164 251.461 39.6992C251.539 39.582 251.611 39.4648 251.676 39.3477C251.741 39.2174 251.773 39.0807 251.773 38.9375C251.747 38.8854 251.708 38.8138 251.656 38.7227C251.617 38.6185 251.585 38.5599 251.559 38.5469V37.7266C251.559 37.7005 251.507 37.6289 251.402 37.5117C251.311 37.3945 251.24 37.3229 251.188 37.2969C251.135 37.2708 251.057 37.2383 250.953 37.1992C250.862 37.1471 250.758 37.1016 250.641 37.0625C250.523 37.0234 250.406 36.9909 250.289 36.9648C250.185 36.9258 250.1 36.8997 250.035 36.8867C249.905 36.8867 249.807 36.8672 249.742 36.8281C249.69 36.776 249.658 36.75 249.645 36.75L249 36.2812C248.935 36.099 248.902 35.9492 248.902 35.832C248.902 35.6628 248.935 35.513 249 35.3828C249.065 35.2396 249.143 35.0964 249.234 34.9531C249.404 34.862 249.56 34.8034 249.703 34.7773C249.859 34.7383 249.996 34.7188 250.113 34.7188C250.23 34.7057 250.341 34.6927 250.445 34.6797C250.549 34.6667 250.641 34.6341 250.719 34.582L251.188 34.5234C251.214 34.5234 251.285 34.5299 251.402 34.543C251.533 34.543 251.669 34.5495 251.812 34.5625C251.956 34.5755 252.086 34.5885 252.203 34.6016C252.333 34.6016 252.411 34.6081 252.438 34.6211L253.082 34.7578C253.382 34.7578 253.648 34.7122 253.883 34.6211C254.13 34.5299 254.404 34.4388 254.703 34.3477H255.152C255.152 34.3216 255.211 34.3021 255.328 34.2891C255.445 34.263 255.53 34.25 255.582 34.25C255.582 34.224 255.595 34.2109 255.621 34.2109C255.66 34.2109 255.693 34.2109 255.719 34.2109C255.836 34.2109 255.992 34.237 256.188 34.2891C256.396 34.3411 256.598 34.4128 256.793 34.5039C256.988 34.5951 257.158 34.6992 257.301 34.8164C257.444 34.9336 257.516 35.0573 257.516 35.1875C257.516 35.3438 257.47 35.4544 257.379 35.5195C257.288 35.5846 257.197 35.6693 257.105 35.7734L256.363 36.3789C256.207 36.5221 256.051 36.6328 255.895 36.7109C255.738 36.776 255.576 36.8281 255.406 36.8672C255.25 36.9062 255.081 36.9388 254.898 36.9648C254.716 36.9909 254.527 37.0299 254.332 37.082C254.111 37.4206 253.922 37.7656 253.766 38.1172C253.622 38.4688 253.466 38.8138 253.297 39.1523C253.297 39.2174 253.284 39.3021 253.258 39.4062C253.232 39.4974 253.206 39.556 253.18 39.582C253.18 39.5951 253.173 39.6341 253.16 39.6992C253.16 39.7513 253.154 39.8164 253.141 39.8945C253.128 39.9596 253.115 40.0247 253.102 40.0898C253.102 40.1549 253.095 40.1875 253.082 40.1875C253.082 40.2135 253.056 40.2591 253.004 40.3242C252.965 40.3893 252.919 40.4674 252.867 40.5586C252.815 40.6367 252.763 40.7148 252.711 40.793C252.672 40.8581 252.652 40.8971 252.652 40.9102V41.9258C252.639 41.9388 252.613 41.9844 252.574 42.0625C252.535 42.1276 252.49 42.2057 252.438 42.2969C252.398 42.375 252.353 42.4466 252.301 42.5117C252.262 42.5768 252.229 42.6159 252.203 42.6289C252.021 42.9674 251.806 43.332 251.559 43.7227C251.311 44.1133 251.135 44.5169 251.031 44.9336V45.6367C251.031 45.6628 251.005 45.7344 250.953 45.8516C250.914 45.9557 250.882 46.0078 250.855 46.0078C250.712 46.2812 250.621 46.5352 250.582 46.7695C250.543 47.0039 250.465 47.2318 250.348 47.4531L249.781 48.6055C249.729 48.8659 249.697 49.1328 249.684 49.4062C249.671 49.6797 249.664 49.9596 249.664 50.2461C249.664 50.5195 249.658 50.793 249.645 51.0664C249.632 51.3398 249.605 51.6133 249.566 51.8867C249.54 52.2122 249.436 52.5312 249.254 52.8438C249.072 53.1562 248.909 53.4557 248.766 53.7422C248.74 53.7682 248.701 53.8008 248.648 53.8398C248.609 53.8919 248.59 53.9245 248.59 53.9375C248.538 54.0156 248.486 54.1393 248.434 54.3086C248.408 54.3867 248.382 54.4714 248.355 54.5625C248.342 54.6406 248.329 54.7643 248.316 54.9336C248.303 55.1029 248.29 55.2786 248.277 55.4609C248.277 55.6432 248.271 55.8125 248.258 55.9688C248.258 56.138 248.258 56.2552 248.258 56.3203C248.128 56.4245 248.03 56.5742 247.965 56.7695C247.913 56.9648 247.867 57.1797 247.828 57.4141C247.802 57.6484 247.776 57.8763 247.75 58.0977C247.737 58.332 247.704 58.5273 247.652 58.6836L247.105 59.3867C247.079 59.4128 247.053 59.4974 247.027 59.6406C247.014 59.7969 247.008 59.8945 247.008 59.9336C246.969 59.9727 246.923 60.0378 246.871 60.1289C246.819 60.207 246.754 60.3177 246.676 60.4609C246.598 60.6042 246.507 60.7995 246.402 61.0469C246.402 61.0599 246.389 61.099 246.363 61.1641C246.337 61.2422 246.305 61.3203 246.266 61.3984C246.227 61.4896 246.188 61.5742 246.148 61.6523C246.122 61.7305 246.103 61.776 246.09 61.7891C246.038 61.9714 245.96 62.0885 245.855 62.1406C245.764 62.1927 245.654 62.2773 245.523 62.3945C245.445 62.4596 245.387 62.5117 245.348 62.5508C245.309 62.6029 245.276 62.6484 245.25 62.6875C245.224 62.7266 245.191 62.7656 245.152 62.8047C245.126 62.8568 245.081 62.9219 245.016 63C244.833 63.2344 244.625 63.3711 244.391 63.4102C244.156 63.4622 243.909 63.5273 243.648 63.6055L243.258 63.918C243.102 63.9701 242.952 63.9961 242.809 63.9961C242.665 64.0091 242.529 64.0156 242.398 64.0156C242.151 64.0156 241.891 63.9701 241.617 63.8789C241.344 63.8008 241.09 63.6836 240.855 63.5273C240.621 63.3711 240.426 63.1823 240.27 62.9609C240.113 62.7396 240.035 62.4922 240.035 62.2188Z" fill="white"/>
<path d="M37.83 13.6296C37.4956 13.6296 37.1748 13.495 36.9383 13.2553C36.7019 13.0157 36.569 12.6907 36.569 12.3518V11.5C36.5679 10.4837 36.1689 9.50933 35.4597 8.79069C34.7505 8.07205 33.789 7.66781 32.786 7.66667C32.4516 7.66667 32.1308 7.53205 31.8943 7.29242C31.6579 7.05279 31.525 6.72778 31.525 6.38889C31.525 6.05 31.6579 5.725 31.8943 5.48537C32.1308 5.24574 32.4516 5.11111 32.786 5.11111C34.4576 5.11302 36.0602 5.78674 37.2422 6.98448C38.4242 8.18221 39.0891 9.80615 39.091 11.5V12.3518C39.091 12.6907 38.9581 13.0157 38.7217 13.2553C38.4852 13.495 38.1644 13.6296 37.83 13.6296Z" fill="#353744"/>
<path d="M58.6365 30.6667H33.4165C34.9215 30.6667 36.3648 31.2725 37.429 32.3508C38.4932 33.4291 39.091 34.8917 39.091 36.4167C39.091 37.9417 38.4932 39.4042 37.429 40.4825C36.3648 41.5609 34.9215 42.1667 33.4165 42.1667H58.6365C60.1415 42.1667 61.5848 41.5609 62.649 40.4825C63.7132 39.4042 64.311 37.9417 64.311 36.4167C64.311 34.8917 63.7132 33.4291 62.649 32.3508C61.5848 31.2725 60.1415 30.6667 58.6365 30.6667V30.6667Z" fill="#4B55A5"/>
<path d="M10.088 31.9444H33.4165C34.587 31.9444 35.7096 32.4156 36.5373 33.2543C37.365 34.093 37.83 35.2306 37.83 36.4167C37.83 37.6028 37.365 38.7403 36.5373 39.579C35.7096 40.4177 34.587 40.8889 33.4165 40.8889H10.088V31.9444Z" fill="#D7E6F0"/>
<path d="M33.4165 42.1667H7.56599C7.23155 42.1667 6.91081 42.032 6.67433 41.7924C6.43785 41.5528 6.30499 41.2278 6.30499 40.8889C6.30499 40.55 6.43785 40.225 6.67433 39.9854C6.91081 39.7457 7.23155 39.6111 7.56599 39.6111H33.4165C34.2526 39.6111 35.0544 39.2746 35.6456 38.6755C36.2369 38.0764 36.569 37.2639 36.569 36.4167C36.569 35.5694 36.2369 34.7569 35.6456 34.1579C35.0544 33.5588 34.2526 33.2222 33.4165 33.2222H7.56599C7.23155 33.2222 6.91081 33.0876 6.67433 32.848C6.43785 32.6083 6.30499 32.2833 6.30499 31.9444C6.30499 31.6056 6.43785 31.2805 6.67433 31.0409C6.91081 30.8013 7.23155 30.6667 7.56599 30.6667H33.4165C34.9215 30.6667 36.3648 31.2725 37.429 32.3508C38.4931 33.4291 39.091 34.8917 39.091 36.4167C39.091 37.9417 38.4931 39.4042 37.429 40.4825C36.3648 41.5609 34.9215 42.1667 33.4165 42.1667Z" fill="#6478B9"/>
<path d="M50.0196 30.6667H50.2299C51.7348 30.6667 53.1782 31.2725 54.2424 32.3508C55.3065 33.4291 55.9044 34.8917 55.9044 36.4167C55.9044 37.1718 55.7576 37.9195 55.4724 38.6171C55.1873 39.3147 54.7693 39.9486 54.2424 40.4825C53.7154 41.0165 53.0899 41.44 52.4014 41.729C51.713 42.0179 50.9751 42.1667 50.2299 42.1667H55.2739C56.0191 42.1667 56.757 42.0179 57.4454 41.729C58.1339 41.44 58.7594 41.0165 59.2864 40.4825C59.8133 39.9486 60.2313 39.3147 60.5164 38.6171C60.8016 37.9195 60.9484 37.1718 60.9484 36.4167C60.9484 34.8917 60.3505 33.4291 59.2864 32.3508C58.2222 31.2725 56.7788 30.6667 55.2739 30.6667H50.0196Z" fill="#353744"/>
<path d="M60.528 52.3889H8.827C6.82037 52.3889 4.89593 53.1966 3.47703 54.6344C2.05813 56.0722 1.261 58.0222 1.261 60.0556V60.0556C1.261 62.0889 2.05813 64.0389 3.47703 65.4767C4.89593 66.9145 6.82037 67.7222 8.827 67.7222H60.528V52.3889Z" fill="#A5C3DC"/>
<path d="M40.352 52.3889H8.827C6.82037 52.3889 4.89593 53.1966 3.47703 54.6344C2.05813 56.0722 1.261 58.0222 1.261 60.0556V60.0556C1.261 62.0889 2.05813 64.0389 3.47703 65.4767C4.89593 66.9145 6.82037 67.7222 8.827 67.7222H40.352V52.3889Z" fill="#D7E6F0"/>
<path d="M63.05 69H8.827C6.48593 69 4.24075 68.0576 2.58537 66.3802C0.929985 64.7028 0 62.4278 0 60.0556C0 57.6833 0.929985 55.4083 2.58537 53.7309C4.24075 52.0535 6.48593 51.1111 8.827 51.1111H63.05C63.3844 51.1111 63.7052 51.2457 63.9417 51.4854C64.1781 51.725 64.311 52.05 64.311 52.3889C64.311 52.7278 64.1781 53.0528 63.9417 53.2924C63.7052 53.532 63.3844 53.6667 63.05 53.6667H8.827C7.15481 53.6667 5.55111 54.3398 4.36869 55.5379C3.18627 56.7361 2.522 58.3611 2.522 60.0556C2.522 61.75 3.18627 63.375 4.36869 64.5732C5.55111 65.7713 7.15481 66.4444 8.827 66.4444H63.05C63.3844 66.4444 63.7052 66.5791 63.9417 66.8187C64.1781 67.0583 64.311 67.3833 64.311 67.7222C64.311 68.0611 64.1781 68.3861 63.9417 68.6257C63.7052 68.8654 63.3844 69 63.05 69Z" fill="#4B55A5"/>
<path d="M42.874 69H8.827C6.48593 69 4.24075 68.0576 2.58537 66.3802C0.929985 64.7028 0 62.4278 0 60.0556C0 57.6833 0.929985 55.4083 2.58537 53.7309C4.24075 52.0535 6.48593 51.1111 8.827 51.1111H42.874C43.2084 51.1111 43.5292 51.2457 43.7657 51.4854C44.0021 51.725 44.135 52.05 44.135 52.3889C44.135 52.7278 44.0021 53.0528 43.7657 53.2924C43.5292 53.532 43.2084 53.6667 42.874 53.6667H8.827C7.15481 53.6667 5.55111 54.3398 4.36869 55.5379C3.18627 56.7361 2.522 58.3611 2.522 60.0556C2.522 61.75 3.18627 63.375 4.36869 64.5732C5.55111 65.7713 7.15481 66.4444 8.827 66.4444H42.874C43.2084 66.4444 43.5292 66.5791 43.7657 66.8187C44.0021 67.0583 44.135 67.3833 44.135 67.7222C44.135 68.0611 44.0021 68.3861 43.7657 68.6257C43.5292 68.8654 43.2084 69 42.874 69Z" fill="#6478B9"/>
<path d="M23.666 69C23.857 69 24.0438 68.9427 24.2028 68.8353L27.742 66.4444L31.2812 68.8353C31.4402 68.9427 31.627 69 31.818 69V69C31.9451 69 32.071 68.9747 32.1885 68.9254C32.3059 68.8761 32.4126 68.8038 32.5025 68.7128C32.5924 68.6217 32.6637 68.5135 32.7124 68.3945C32.761 68.2755 32.786 68.148 32.786 68.0191V57.5H22.698V68.0191C22.698 68.148 22.723 68.2755 22.7716 68.3945C22.8203 68.5135 22.8916 68.6217 22.9815 68.7128C23.0714 68.8038 23.1781 68.8761 23.2955 68.9254C23.413 68.9747 23.5389 69 23.666 69V69Z" fill="#F04B37"/>
<path d="M74.399 42.1667H13.871C13.1746 42.1667 12.61 42.7387 12.61 43.4444V49.8333C12.61 50.539 13.1746 51.1111 13.871 51.1111H74.399C75.0954 51.1111 75.66 50.539 75.66 49.8333V43.4444C75.66 42.7387 75.0954 42.1667 74.399 42.1667Z" fill="#FABE19"/>
<path d="M70.616 42.1667H65.572V51.1111H70.616V42.1667Z" fill="#F5871E"/>
<path d="M42.874 10.2222C41.0122 10.2198 39.2155 10.9158 37.83 12.1759C36.7416 11.1889 35.3945 10.5422 33.9513 10.314C32.5081 10.0857 31.0306 10.2858 29.6972 10.8899C28.3638 11.494 27.2314 12.4764 26.4369 13.7183C25.6425 14.9603 25.2198 16.4088 25.22 17.8889C25.22 25.1296 30.264 30.6667 34.047 30.6667H41.613C45.396 30.6667 50.44 25.1296 50.44 17.8889C50.44 15.8556 49.6429 13.9055 48.224 12.4677C46.8051 11.03 44.8806 10.2222 42.874 10.2222Z" fill="#D7322D"/>
<path d="M31.525 17.8889C32.9179 17.8889 34.047 16.7447 34.047 15.3333C34.047 13.9219 32.9179 12.7778 31.525 12.7778C30.1321 12.7778 29.003 13.9219 29.003 15.3333C29.003 16.7447 30.1321 17.8889 31.525 17.8889Z" fill="#F04B37"/>
<path d="M44.135 0C44.4694 0 44.7902 0.134623 45.0267 0.374253C45.2631 0.613883 45.396 0.93889 45.396 1.27778C45.396 2.97222 44.7317 4.59726 43.5493 5.7954C42.3669 6.99355 40.7632 7.66667 39.091 7.66667H37.83V6.38889C37.83 4.69445 38.4943 3.06941 39.6767 1.87126C40.8591 0.673113 42.4628 0 44.135 0V0Z" fill="#6EA5D7"/>
</svg>
